<?xml version="1.0" encoding="utf-8" standalone="no"?>
<!DOCTYPE svg PUBLIC "-//W3C//DTD SVG 1.1//EN"
  "http://www.w3.org/Graphics/SVG/1.1/DTD/svg11.dtd">
<!-- Created with matplotlib (https://matplotlib.org/) -->
<svg height="618.48pt" version="1.1" viewBox="0 0 995.76 618.48" width="995.76pt" xmlns="http://www.w3.org/2000/svg" xmlns:xlink="http://www.w3.org/1999/xlink">
 <metadata>
  <rdf:RDF xmlns:cc="http://creativecommons.org/ns#" xmlns:dc="http://purl.org/dc/elements/1.1/" xmlns:rdf="http://www.w3.org/1999/02/22-rdf-syntax-ns#">
   <cc:Work>
    <dc:type rdf:resource="http://purl.org/dc/dcmitype/StillImage"/>
    <dc:date>2025-07-25T15:35:46.031345</dc:date>
    <dc:format>image/svg+xml</dc:format>
    <dc:creator>
     <cc:Agent>
      <dc:title>Matplotlib v3.3.4, https://matplotlib.org/</dc:title>
     </cc:Agent>
    </dc:creator>
   </cc:Work>
  </rdf:RDF>
 </metadata>
 <defs>
  <style type="text/css">*{stroke-linecap:butt;stroke-linejoin:round;}</style>
 </defs>
 <g id="figure_1">
  <g id="patch_1">
   <path d="M 0 618.48 
L 995.76 618.48 
L 995.76 0 
L 0 0 
z
" style="fill:#ffffff;"/>
  </g>
  <g id="axes_1">
   <g id="patch_2">
    <path d="M 124.47 550.4472 
L 833.796 550.4472 
L 833.796 74.2176 
L 124.47 74.2176 
z
" style="fill:#e6e6e6;"/>
   </g>
   <g id="matplotlib.axis_1">
    <g id="xtick_1">
     <g id="line2d_1"/>
     <g id="text_1">
      <!-- BBR-v3 -->
      <g transform="translate(186.339875 589.844075)rotate(-90)scale(0.1 -0.1)">
       <defs>
        <path d="M 19.671875 34.8125 
L 19.671875 8.109375 
L 35.5 8.109375 
Q 43.453125 8.109375 47.28125 11.40625 
Q 51.125 14.703125 51.125 21.484375 
Q 51.125 28.328125 47.28125 31.5625 
Q 43.453125 34.8125 35.5 34.8125 
z
M 19.671875 64.796875 
L 19.671875 42.828125 
L 34.28125 42.828125 
Q 41.5 42.828125 45.03125 45.53125 
Q 48.578125 48.25 48.578125 53.8125 
Q 48.578125 59.328125 45.03125 62.0625 
Q 41.5 64.796875 34.28125 64.796875 
z
M 9.8125 72.90625 
L 35.015625 72.90625 
Q 46.296875 72.90625 52.390625 68.21875 
Q 58.5 63.53125 58.5 54.890625 
Q 58.5 48.1875 55.375 44.234375 
Q 52.25 40.28125 46.1875 39.3125 
Q 53.46875 37.75 57.5 32.78125 
Q 61.53125 27.828125 61.53125 20.40625 
Q 61.53125 10.640625 54.890625 5.3125 
Q 48.25 0 35.984375 0 
L 9.8125 0 
z
" id="DejaVuSans-66"/>
        <path d="M 44.390625 34.1875 
Q 47.5625 33.109375 50.5625 29.59375 
Q 53.5625 26.078125 56.59375 19.921875 
L 66.609375 0 
L 56 0 
L 46.6875 18.703125 
Q 43.0625 26.03125 39.671875 28.421875 
Q 36.28125 30.8125 30.421875 30.8125 
L 19.671875 30.8125 
L 19.671875 0 
L 9.8125 0 
L 9.8125 72.90625 
L 32.078125 72.90625 
Q 44.578125 72.90625 50.734375 67.671875 
Q 56.890625 62.453125 56.890625 51.90625 
Q 56.890625 45.015625 53.6875 40.46875 
Q 50.484375 35.9375 44.390625 34.1875 
z
M 19.671875 64.796875 
L 19.671875 38.921875 
L 32.078125 38.921875 
Q 39.203125 38.921875 42.84375 42.21875 
Q 46.484375 45.515625 46.484375 51.90625 
Q 46.484375 58.296875 42.84375 61.546875 
Q 39.203125 64.796875 32.078125 64.796875 
z
" id="DejaVuSans-82"/>
        <path d="M 4.890625 31.390625 
L 31.203125 31.390625 
L 31.203125 23.390625 
L 4.890625 23.390625 
z
" id="DejaVuSans-45"/>
        <path d="M 2.984375 54.6875 
L 12.5 54.6875 
L 29.59375 8.796875 
L 46.6875 54.6875 
L 56.203125 54.6875 
L 35.6875 0 
L 23.484375 0 
z
" id="DejaVuSans-118"/>
        <path d="M 40.578125 39.3125 
Q 47.65625 37.796875 51.625 33 
Q 55.609375 28.21875 55.609375 21.1875 
Q 55.609375 10.40625 48.1875 4.484375 
Q 40.765625 -1.421875 27.09375 -1.421875 
Q 22.515625 -1.421875 17.65625 -0.515625 
Q 12.796875 0.390625 7.625 2.203125 
L 7.625 11.71875 
Q 11.71875 9.328125 16.59375 8.109375 
Q 21.484375 6.890625 26.8125 6.890625 
Q 36.078125 6.890625 40.9375 10.546875 
Q 45.796875 14.203125 45.796875 21.1875 
Q 45.796875 27.640625 41.28125 31.265625 
Q 36.765625 34.90625 28.71875 34.90625 
L 20.21875 34.90625 
L 20.21875 43.015625 
L 29.109375 43.015625 
Q 36.375 43.015625 40.234375 45.921875 
Q 44.09375 48.828125 44.09375 54.296875 
Q 44.09375 59.90625 40.109375 62.90625 
Q 36.140625 65.921875 28.71875 65.921875 
Q 24.65625 65.921875 20.015625 65.03125 
Q 15.375 64.15625 9.8125 62.3125 
L 9.8125 71.09375 
Q 15.4375 72.65625 20.34375 73.4375 
Q 25.25 74.21875 29.59375 74.21875 
Q 40.828125 74.21875 47.359375 69.109375 
Q 53.90625 64.015625 53.90625 55.328125 
Q 53.90625 49.265625 50.4375 45.09375 
Q 46.96875 40.921875 40.578125 39.3125 
z
" id="DejaVuSans-51"/>
       </defs>
       <use xlink:href="#DejaVuSans-66"/>
       <use x="68.603516" xlink:href="#DejaVuSans-66"/>
       <use x="137.207031" xlink:href="#DejaVuSans-82"/>
       <use x="202.689453" xlink:href="#DejaVuSans-45"/>
       <use x="236.148438" xlink:href="#DejaVuSans-118"/>
       <use x="295.328125" xlink:href="#DejaVuSans-51"/>
      </g>
     </g>
    </g>
    <g id="xtick_2">
     <g id="line2d_2"/>
     <g id="text_2">
      <!-- Cubic -->
      <g transform="translate(245.450375 581.892513)rotate(-90)scale(0.1 -0.1)">
       <defs>
        <path d="M 64.40625 67.28125 
L 64.40625 56.890625 
Q 59.421875 61.53125 53.78125 63.8125 
Q 48.140625 66.109375 41.796875 66.109375 
Q 29.296875 66.109375 22.65625 58.46875 
Q 16.015625 50.828125 16.015625 36.375 
Q 16.015625 21.96875 22.65625 14.328125 
Q 29.296875 6.6875 41.796875 6.6875 
Q 48.140625 6.6875 53.78125 8.984375 
Q 59.421875 11.28125 64.40625 15.921875 
L 64.40625 5.609375 
Q 59.234375 2.09375 53.4375 0.328125 
Q 47.65625 -1.421875 41.21875 -1.421875 
Q 24.65625 -1.421875 15.125 8.703125 
Q 5.609375 18.84375 5.609375 36.375 
Q 5.609375 53.953125 15.125 64.078125 
Q 24.65625 74.21875 41.21875 74.21875 
Q 47.75 74.21875 53.53125 72.484375 
Q 59.328125 70.75 64.40625 67.28125 
z
" id="DejaVuSans-67"/>
        <path d="M 8.5 21.578125 
L 8.5 54.6875 
L 17.484375 54.6875 
L 17.484375 21.921875 
Q 17.484375 14.15625 20.5 10.265625 
Q 23.53125 6.390625 29.59375 6.390625 
Q 36.859375 6.390625 41.078125 11.03125 
Q 45.3125 15.671875 45.3125 23.6875 
L 45.3125 54.6875 
L 54.296875 54.6875 
L 54.296875 0 
L 45.3125 0 
L 45.3125 8.40625 
Q 42.046875 3.421875 37.71875 1 
Q 33.40625 -1.421875 27.6875 -1.421875 
Q 18.265625 -1.421875 13.375 4.4375 
Q 8.5 10.296875 8.5 21.578125 
z
M 31.109375 56 
z
" id="DejaVuSans-117"/>
        <path d="M 48.6875 27.296875 
Q 48.6875 37.203125 44.609375 42.84375 
Q 40.53125 48.484375 33.40625 48.484375 
Q 26.265625 48.484375 22.1875 42.84375 
Q 18.109375 37.203125 18.109375 27.296875 
Q 18.109375 17.390625 22.1875 11.75 
Q 26.265625 6.109375 33.40625 6.109375 
Q 40.53125 6.109375 44.609375 11.75 
Q 48.6875 17.390625 48.6875 27.296875 
z
M 18.109375 46.390625 
Q 20.953125 51.265625 25.265625 53.625 
Q 29.59375 56 35.59375 56 
Q 45.5625 56 51.78125 48.09375 
Q 58.015625 40.1875 58.015625 27.296875 
Q 58.015625 14.40625 51.78125 6.484375 
Q 45.5625 -1.421875 35.59375 -1.421875 
Q 29.59375 -1.421875 25.265625 0.953125 
Q 20.953125 3.328125 18.109375 8.203125 
L 18.109375 0 
L 9.078125 0 
L 9.078125 75.984375 
L 18.109375 75.984375 
z
" id="DejaVuSans-98"/>
        <path d="M 9.421875 54.6875 
L 18.40625 54.6875 
L 18.40625 0 
L 9.421875 0 
z
M 9.421875 75.984375 
L 18.40625 75.984375 
L 18.40625 64.59375 
L 9.421875 64.59375 
z
" id="DejaVuSans-105"/>
        <path d="M 48.78125 52.59375 
L 48.78125 44.1875 
Q 44.96875 46.296875 41.140625 47.34375 
Q 37.3125 48.390625 33.40625 48.390625 
Q 24.65625 48.390625 19.8125 42.84375 
Q 14.984375 37.3125 14.984375 27.296875 
Q 14.984375 17.28125 19.8125 11.734375 
Q 24.65625 6.203125 33.40625 6.203125 
Q 37.3125 6.203125 41.140625 7.25 
Q 44.96875 8.296875 48.78125 10.40625 
L 48.78125 2.09375 
Q 45.015625 0.34375 40.984375 -0.53125 
Q 36.96875 -1.421875 32.421875 -1.421875 
Q 20.0625 -1.421875 12.78125 6.34375 
Q 5.515625 14.109375 5.515625 27.296875 
Q 5.515625 40.671875 12.859375 48.328125 
Q 20.21875 56 33.015625 56 
Q 37.15625 56 41.109375 55.140625 
Q 45.0625 54.296875 48.78125 52.59375 
z
" id="DejaVuSans-99"/>
       </defs>
       <use xlink:href="#DejaVuSans-67"/>
       <use x="69.824219" xlink:href="#DejaVuSans-117"/>
       <use x="133.203125" xlink:href="#DejaVuSans-98"/>
       <use x="196.679688" xlink:href="#DejaVuSans-105"/>
       <use x="224.462891" xlink:href="#DejaVuSans-99"/>
      </g>
     </g>
    </g>
    <g id="xtick_3">
     <g id="line2d_3"/>
     <g id="text_3">
      <!-- BBR-n+ -->
      <g transform="translate(304.560875 592.542513)rotate(-90)scale(0.1 -0.1)">
       <defs>
        <path d="M 54.890625 33.015625 
L 54.890625 0 
L 45.90625 0 
L 45.90625 32.71875 
Q 45.90625 40.484375 42.875 44.328125 
Q 39.84375 48.1875 33.796875 48.1875 
Q 26.515625 48.1875 22.3125 43.546875 
Q 18.109375 38.921875 18.109375 30.90625 
L 18.109375 0 
L 9.078125 0 
L 9.078125 54.6875 
L 18.109375 54.6875 
L 18.109375 46.1875 
Q 21.34375 51.125 25.703125 53.5625 
Q 30.078125 56 35.796875 56 
Q 45.21875 56 50.046875 50.171875 
Q 54.890625 44.34375 54.890625 33.015625 
z
" id="DejaVuSans-110"/>
        <path d="M 46 62.703125 
L 46 35.5 
L 73.1875 35.5 
L 73.1875 27.203125 
L 46 27.203125 
L 46 0 
L 37.796875 0 
L 37.796875 27.203125 
L 10.59375 27.203125 
L 10.59375 35.5 
L 37.796875 35.5 
L 37.796875 62.703125 
z
" id="DejaVuSans-43"/>
       </defs>
       <use xlink:href="#DejaVuSans-66"/>
       <use x="68.603516" xlink:href="#DejaVuSans-66"/>
       <use x="137.207031" xlink:href="#DejaVuSans-82"/>
       <use x="202.689453" xlink:href="#DejaVuSans-45"/>
       <use x="238.773438" xlink:href="#DejaVuSans-110"/>
       <use x="302.152344" xlink:href="#DejaVuSans-43"/>
      </g>
     </g>
    </g>
    <g id="xtick_4">
     <g id="line2d_4"/>
     <g id="text_4">
      <!-- BBR-v3 -->
      <g transform="translate(422.781875 589.844075)rotate(-90)scale(0.1 -0.1)">
       <use xlink:href="#DejaVuSans-66"/>
       <use x="68.603516" xlink:href="#DejaVuSans-66"/>
       <use x="137.207031" xlink:href="#DejaVuSans-82"/>
       <use x="202.689453" xlink:href="#DejaVuSans-45"/>
       <use x="236.148438" xlink:href="#DejaVuSans-118"/>
       <use x="295.328125" xlink:href="#DejaVuSans-51"/>
      </g>
     </g>
    </g>
    <g id="xtick_5">
     <g id="line2d_5"/>
     <g id="text_5">
      <!-- Cubic -->
      <g transform="translate(481.892375 581.892513)rotate(-90)scale(0.1 -0.1)">
       <use xlink:href="#DejaVuSans-67"/>
       <use x="69.824219" xlink:href="#DejaVuSans-117"/>
       <use x="133.203125" xlink:href="#DejaVuSans-98"/>
       <use x="196.679688" xlink:href="#DejaVuSans-105"/>
       <use x="224.462891" xlink:href="#DejaVuSans-99"/>
      </g>
     </g>
    </g>
    <g id="xtick_6">
     <g id="line2d_6"/>
     <g id="text_6">
      <!-- BBR-n+ -->
      <g transform="translate(541.002875 592.542513)rotate(-90)scale(0.1 -0.1)">
       <use xlink:href="#DejaVuSans-66"/>
       <use x="68.603516" xlink:href="#DejaVuSans-66"/>
       <use x="137.207031" xlink:href="#DejaVuSans-82"/>
       <use x="202.689453" xlink:href="#DejaVuSans-45"/>
       <use x="238.773438" xlink:href="#DejaVuSans-110"/>
       <use x="302.152344" xlink:href="#DejaVuSans-43"/>
      </g>
     </g>
    </g>
    <g id="xtick_7">
     <g id="line2d_7"/>
     <g id="text_7">
      <!-- BBR-v3 -->
      <g transform="translate(659.223875 589.844075)rotate(-90)scale(0.1 -0.1)">
       <use xlink:href="#DejaVuSans-66"/>
       <use x="68.603516" xlink:href="#DejaVuSans-66"/>
       <use x="137.207031" xlink:href="#DejaVuSans-82"/>
       <use x="202.689453" xlink:href="#DejaVuSans-45"/>
       <use x="236.148438" xlink:href="#DejaVuSans-118"/>
       <use x="295.328125" xlink:href="#DejaVuSans-51"/>
      </g>
     </g>
    </g>
    <g id="xtick_8">
     <g id="line2d_8"/>
     <g id="text_8">
      <!-- Cubic -->
      <g transform="translate(718.334375 581.892513)rotate(-90)scale(0.1 -0.1)">
       <use xlink:href="#DejaVuSans-67"/>
       <use x="69.824219" xlink:href="#DejaVuSans-117"/>
       <use x="133.203125" xlink:href="#DejaVuSans-98"/>
       <use x="196.679688" xlink:href="#DejaVuSans-105"/>
       <use x="224.462891" xlink:href="#DejaVuSans-99"/>
      </g>
     </g>
    </g>
    <g id="xtick_9">
     <g id="line2d_9"/>
     <g id="text_9">
      <!-- BBR-n+ -->
      <g transform="translate(777.444875 592.542513)rotate(-90)scale(0.1 -0.1)">
       <use xlink:href="#DejaVuSans-66"/>
       <use x="68.603516" xlink:href="#DejaVuSans-66"/>
       <use x="137.207031" xlink:href="#DejaVuSans-82"/>
       <use x="202.689453" xlink:href="#DejaVuSans-45"/>
       <use x="238.773438" xlink:href="#DejaVuSans-110"/>
       <use x="302.152344" xlink:href="#DejaVuSans-43"/>
      </g>
     </g>
    </g>
   </g>
   <g id="matplotlib.axis_2">
    <g id="ytick_1">
     <g id="line2d_10"/>
     <g id="text_10">
      <!-- 50 -->
      <g transform="translate(108.245 519.051925)scale(0.1 -0.1)">
       <defs>
        <path d="M 10.796875 72.90625 
L 49.515625 72.90625 
L 49.515625 64.59375 
L 19.828125 64.59375 
L 19.828125 46.734375 
Q 21.96875 47.46875 24.109375 47.828125 
Q 26.265625 48.1875 28.421875 48.1875 
Q 40.625 48.1875 47.75 41.5 
Q 54.890625 34.8125 54.890625 23.390625 
Q 54.890625 11.625 47.5625 5.09375 
Q 40.234375 -1.421875 26.90625 -1.421875 
Q 22.3125 -1.421875 17.546875 -0.640625 
Q 12.796875 0.140625 7.71875 1.703125 
L 7.71875 11.625 
Q 12.109375 9.234375 16.796875 8.0625 
Q 21.484375 6.890625 26.703125 6.890625 
Q 35.15625 6.890625 40.078125 11.328125 
Q 45.015625 15.765625 45.015625 23.390625 
Q 45.015625 31 40.078125 35.4375 
Q 35.15625 39.890625 26.703125 39.890625 
Q 22.75 39.890625 18.8125 39.015625 
Q 14.890625 38.140625 10.796875 36.28125 
z
" id="DejaVuSans-53"/>
        <path d="M 31.78125 66.40625 
Q 24.171875 66.40625 20.328125 58.90625 
Q 16.5 51.421875 16.5 36.375 
Q 16.5 21.390625 20.328125 13.890625 
Q 24.171875 6.390625 31.78125 6.390625 
Q 39.453125 6.390625 43.28125 13.890625 
Q 47.125 21.390625 47.125 36.375 
Q 47.125 51.421875 43.28125 58.90625 
Q 39.453125 66.40625 31.78125 66.40625 
z
M 31.78125 74.21875 
Q 44.046875 74.21875 50.515625 64.515625 
Q 56.984375 54.828125 56.984375 36.375 
Q 56.984375 17.96875 50.515625 8.265625 
Q 44.046875 -1.421875 31.78125 -1.421875 
Q 19.53125 -1.421875 13.0625 8.265625 
Q 6.59375 17.96875 6.59375 36.375 
Q 6.59375 54.828125 13.0625 64.515625 
Q 19.53125 74.21875 31.78125 74.21875 
z
" id="DejaVuSans-48"/>
       </defs>
       <use xlink:href="#DejaVuSans-53"/>
       <use x="63.623047" xlink:href="#DejaVuSans-48"/>
      </g>
     </g>
    </g>
    <g id="ytick_2">
     <g id="line2d_11"/>
     <g id="text_11">
      <!-- 100 -->
      <g transform="translate(101.8825 436.80909)scale(0.1 -0.1)">
       <defs>
        <path d="M 12.40625 8.296875 
L 28.515625 8.296875 
L 28.515625 63.921875 
L 10.984375 60.40625 
L 10.984375 69.390625 
L 28.421875 72.90625 
L 38.28125 72.90625 
L 38.28125 8.296875 
L 54.390625 8.296875 
L 54.390625 0 
L 12.40625 0 
z
" id="DejaVuSans-49"/>
       </defs>
       <use xlink:href="#DejaVuSans-49"/>
       <use x="63.623047" xlink:href="#DejaVuSans-48"/>
       <use x="127.246094" xlink:href="#DejaVuSans-48"/>
      </g>
     </g>
    </g>
    <g id="ytick_3">
     <g id="line2d_12"/>
     <g id="text_12">
      <!-- 150 -->
      <g transform="translate(101.8825 354.566256)scale(0.1 -0.1)">
       <use xlink:href="#DejaVuSans-49"/>
       <use x="63.623047" xlink:href="#DejaVuSans-53"/>
       <use x="127.246094" xlink:href="#DejaVuSans-48"/>
      </g>
     </g>
    </g>
    <g id="ytick_4">
     <g id="line2d_13"/>
     <g id="text_13">
      <!-- 200 -->
      <g transform="translate(101.8825 272.323421)scale(0.1 -0.1)">
       <defs>
        <path d="M 19.1875 8.296875 
L 53.609375 8.296875 
L 53.609375 0 
L 7.328125 0 
L 7.328125 8.296875 
Q 12.9375 14.109375 22.625 23.890625 
Q 32.328125 33.6875 34.8125 36.53125 
Q 39.546875 41.84375 41.421875 45.53125 
Q 43.3125 49.21875 43.3125 52.78125 
Q 43.3125 58.59375 39.234375 62.25 
Q 35.15625 65.921875 28.609375 65.921875 
Q 23.96875 65.921875 18.8125 64.3125 
Q 13.671875 62.703125 7.8125 59.421875 
L 7.8125 69.390625 
Q 13.765625 71.78125 18.9375 73 
Q 24.125 74.21875 28.421875 74.21875 
Q 39.75 74.21875 46.484375 68.546875 
Q 53.21875 62.890625 53.21875 53.421875 
Q 53.21875 48.921875 51.53125 44.890625 
Q 49.859375 40.875 45.40625 35.40625 
Q 44.1875 33.984375 37.640625 27.21875 
Q 31.109375 20.453125 19.1875 8.296875 
z
" id="DejaVuSans-50"/>
       </defs>
       <use xlink:href="#DejaVuSans-50"/>
       <use x="63.623047" xlink:href="#DejaVuSans-48"/>
       <use x="127.246094" xlink:href="#DejaVuSans-48"/>
      </g>
     </g>
    </g>
    <g id="ytick_5">
     <g id="line2d_14"/>
     <g id="text_14">
      <!-- 250 -->
      <g transform="translate(101.8825 190.080586)scale(0.1 -0.1)">
       <use xlink:href="#DejaVuSans-50"/>
       <use x="63.623047" xlink:href="#DejaVuSans-53"/>
       <use x="127.246094" xlink:href="#DejaVuSans-48"/>
      </g>
     </g>
    </g>
    <g id="ytick_6">
     <g id="line2d_15"/>
     <g id="text_15">
      <!-- 300 -->
      <g transform="translate(101.8825 107.837752)scale(0.1 -0.1)">
       <use xlink:href="#DejaVuSans-51"/>
       <use x="63.623047" xlink:href="#DejaVuSans-48"/>
       <use x="127.246094" xlink:href="#DejaVuSans-48"/>
      </g>
     </g>
    </g>
    <g id="ytick_7">
     <g id="line2d_16"/>
    </g>
    <g id="ytick_8">
     <g id="line2d_17"/>
    </g>
    <g id="ytick_9">
     <g id="line2d_18"/>
    </g>
    <g id="ytick_10">
     <g id="line2d_19"/>
    </g>
    <g id="ytick_11">
     <g id="line2d_20"/>
    </g>
    <g id="ytick_12">
     <g id="line2d_21"/>
    </g>
    <g id="ytick_13">
     <g id="line2d_22"/>
    </g>
    <g id="ytick_14">
     <g id="line2d_23"/>
    </g>
    <g id="ytick_15">
     <g id="line2d_24"/>
    </g>
    <g id="ytick_16">
     <g id="line2d_25"/>
    </g>
    <g id="ytick_17">
     <g id="line2d_26"/>
    </g>
    <g id="ytick_18">
     <g id="line2d_27"/>
    </g>
    <g id="ytick_19">
     <g id="line2d_28"/>
    </g>
    <g id="ytick_20">
     <g id="line2d_29"/>
    </g>
    <g id="ytick_21">
     <g id="line2d_30"/>
    </g>
    <g id="ytick_22">
     <g id="line2d_31"/>
    </g>
    <g id="ytick_23">
     <g id="line2d_32"/>
    </g>
    <g id="ytick_24">
     <g id="line2d_33"/>
    </g>
    <g id="ytick_25">
     <g id="line2d_34"/>
    </g>
    <g id="ytick_26">
     <g id="line2d_35"/>
    </g>
    <g id="ytick_27">
     <g id="line2d_36"/>
    </g>
    <g id="ytick_28">
     <g id="line2d_37"/>
    </g>
    <g id="ytick_29">
     <g id="line2d_38"/>
    </g>
    <g id="text_16">
     <!-- Mbits/s -->
     <g transform="translate(95.802812 330.06365)rotate(-90)scale(0.1 -0.1)">
      <defs>
       <path d="M 9.8125 72.90625 
L 24.515625 72.90625 
L 43.109375 23.296875 
L 61.8125 72.90625 
L 76.515625 72.90625 
L 76.515625 0 
L 66.890625 0 
L 66.890625 64.015625 
L 48.09375 14.015625 
L 38.1875 14.015625 
L 19.390625 64.015625 
L 19.390625 0 
L 9.8125 0 
z
" id="DejaVuSans-77"/>
       <path d="M 18.3125 70.21875 
L 18.3125 54.6875 
L 36.8125 54.6875 
L 36.8125 47.703125 
L 18.3125 47.703125 
L 18.3125 18.015625 
Q 18.3125 11.328125 20.140625 9.421875 
Q 21.96875 7.515625 27.59375 7.515625 
L 36.8125 7.515625 
L 36.8125 0 
L 27.59375 0 
Q 17.1875 0 13.234375 3.875 
Q 9.28125 7.765625 9.28125 18.015625 
L 9.28125 47.703125 
L 2.6875 47.703125 
L 2.6875 54.6875 
L 9.28125 54.6875 
L 9.28125 70.21875 
z
" id="DejaVuSans-116"/>
       <path d="M 44.28125 53.078125 
L 44.28125 44.578125 
Q 40.484375 46.53125 36.375 47.5 
Q 32.28125 48.484375 27.875 48.484375 
Q 21.1875 48.484375 17.84375 46.4375 
Q 14.5 44.390625 14.5 40.28125 
Q 14.5 37.15625 16.890625 35.375 
Q 19.28125 33.59375 26.515625 31.984375 
L 29.59375 31.296875 
Q 39.15625 29.25 43.1875 25.515625 
Q 47.21875 21.78125 47.21875 15.09375 
Q 47.21875 7.46875 41.1875 3.015625 
Q 35.15625 -1.421875 24.609375 -1.421875 
Q 20.21875 -1.421875 15.453125 -0.5625 
Q 10.6875 0.296875 5.421875 2 
L 5.421875 11.28125 
Q 10.40625 8.6875 15.234375 7.390625 
Q 20.0625 6.109375 24.8125 6.109375 
Q 31.15625 6.109375 34.5625 8.28125 
Q 37.984375 10.453125 37.984375 14.40625 
Q 37.984375 18.0625 35.515625 20.015625 
Q 33.0625 21.96875 24.703125 23.78125 
L 21.578125 24.515625 
Q 13.234375 26.265625 9.515625 29.90625 
Q 5.8125 33.546875 5.8125 39.890625 
Q 5.8125 47.609375 11.28125 51.796875 
Q 16.75 56 26.8125 56 
Q 31.78125 56 36.171875 55.265625 
Q 40.578125 54.546875 44.28125 53.078125 
z
" id="DejaVuSans-115"/>
       <path d="M 25.390625 72.90625 
L 33.6875 72.90625 
L 8.296875 -9.28125 
L 0 -9.28125 
z
" id="DejaVuSans-47"/>
      </defs>
      <use xlink:href="#DejaVuSans-77"/>
      <use x="86.279297" xlink:href="#DejaVuSans-98"/>
      <use x="149.755859" xlink:href="#DejaVuSans-105"/>
      <use x="177.539062" xlink:href="#DejaVuSans-116"/>
      <use x="216.748047" xlink:href="#DejaVuSans-115"/>
      <use x="268.847656" xlink:href="#DejaVuSans-47"/>
      <use x="302.539062" xlink:href="#DejaVuSans-115"/>
     </g>
    </g>
   </g>
   <g id="line2d_39">
    <path clip-path="url(#p2f55a73da4)" d="M 174.713925 493.244376 
L 192.447075 493.244376 
L 192.447075 453.857157 
L 174.713925 453.857157 
L 174.713925 493.244376 
" style="fill:none;stroke:#1b9e77;stroke-linecap:round;"/>
   </g>
   <g id="line2d_40">
    <path clip-path="url(#p2f55a73da4)" d="M 183.5805 493.244376 
L 183.5805 535.419385 
" style="fill:none;stroke:#1b9e77;stroke-linecap:round;"/>
   </g>
   <g id="line2d_41">
    <path clip-path="url(#p2f55a73da4)" d="M 183.5805 453.857157 
L 183.5805 394.792101 
" style="fill:none;stroke:#1b9e77;stroke-linecap:round;"/>
   </g>
   <g id="line2d_42">
    <path clip-path="url(#p2f55a73da4)" d="M 179.147212 535.419385 
L 188.013787 535.419385 
" style="fill:none;stroke:#1b9e77;stroke-linecap:round;"/>
   </g>
   <g id="line2d_43">
    <path clip-path="url(#p2f55a73da4)" d="M 179.147212 394.792101 
L 188.013787 394.792101 
" style="fill:none;stroke:#1b9e77;stroke-linecap:round;"/>
   </g>
   <g id="line2d_44">
    <defs>
     <path d="M -3 0 
L 3 0 
M 0 3 
L 0 -3 
" id="m999f379ac9" style="stroke:#1b9e77;"/>
    </defs>
    <g clip-path="url(#p2f55a73da4)">
     <use style="fill:#0000ff;stroke:#1b9e77;" x="183.5805" xlink:href="#m999f379ac9" y="393.137247"/>
     <use style="fill:#0000ff;stroke:#1b9e77;" x="183.5805" xlink:href="#m999f379ac9" y="388.660823"/>
     <use style="fill:#0000ff;stroke:#1b9e77;" x="183.5805" xlink:href="#m999f379ac9" y="378.27643"/>
     <use style="fill:#0000ff;stroke:#1b9e77;" x="183.5805" xlink:href="#m999f379ac9" y="366.817642"/>
     <use style="fill:#0000ff;stroke:#1b9e77;" x="183.5805" xlink:href="#m999f379ac9" y="362.885678"/>
     <use style="fill:#0000ff;stroke:#1b9e77;" x="183.5805" xlink:href="#m999f379ac9" y="363.487586"/>
     <use style="fill:#0000ff;stroke:#1b9e77;" x="183.5805" xlink:href="#m999f379ac9" y="365.602562"/>
     <use style="fill:#0000ff;stroke:#1b9e77;" x="183.5805" xlink:href="#m999f379ac9" y="366.403046"/>
     <use style="fill:#0000ff;stroke:#1b9e77;" x="183.5805" xlink:href="#m999f379ac9" y="383.900839"/>
    </g>
   </g>
   <g id="line2d_45">
    <path clip-path="url(#p2f55a73da4)" d="M 233.824425 495.777753 
L 251.557575 495.777753 
L 251.557575 470.46237 
L 233.824425 470.46237 
L 233.824425 495.777753 
" style="fill:none;stroke:#d95f02;stroke-linecap:round;"/>
   </g>
   <g id="line2d_46">
    <path clip-path="url(#p2f55a73da4)" d="M 242.691 495.777753 
L 242.691 527.141007 
" style="fill:none;stroke:#d95f02;stroke-linecap:round;"/>
   </g>
   <g id="line2d_47">
    <path clip-path="url(#p2f55a73da4)" d="M 242.691 470.46237 
L 242.691 437.770986 
" style="fill:none;stroke:#d95f02;stroke-linecap:round;"/>
   </g>
   <g id="line2d_48">
    <path clip-path="url(#p2f55a73da4)" d="M 238.257712 527.141007 
L 247.124287 527.141007 
" style="fill:none;stroke:#d95f02;stroke-linecap:round;"/>
   </g>
   <g id="line2d_49">
    <path clip-path="url(#p2f55a73da4)" d="M 238.257712 437.770986 
L 247.124287 437.770986 
" style="fill:none;stroke:#d95f02;stroke-linecap:round;"/>
   </g>
   <g id="line2d_50">
    <defs>
     <path d="M -3 0 
L 3 0 
M 0 3 
L 0 -3 
" id="mfd58b9bc7d" style="stroke:#d95f02;"/>
    </defs>
    <g clip-path="url(#p2f55a73da4)">
     <use style="fill:#0000ff;stroke:#d95f02;" x="242.691" xlink:href="#mfd58b9bc7d" y="540.675742"/>
     <use style="fill:#0000ff;stroke:#d95f02;" x="242.691" xlink:href="#mfd58b9bc7d" y="535.943307"/>
     <use style="fill:#0000ff;stroke:#d95f02;" x="242.691" xlink:href="#mfd58b9bc7d" y="545.778282"/>
     <use style="fill:#0000ff;stroke:#d95f02;" x="242.691" xlink:href="#mfd58b9bc7d" y="421.601341"/>
     <use style="fill:#0000ff;stroke:#d95f02;" x="242.691" xlink:href="#mfd58b9bc7d" y="382.844482"/>
     <use style="fill:#0000ff;stroke:#d95f02;" x="242.691" xlink:href="#mfd58b9bc7d" y="355.007506"/>
     <use style="fill:#0000ff;stroke:#d95f02;" x="242.691" xlink:href="#mfd58b9bc7d" y="315.040003"/>
     <use style="fill:#0000ff;stroke:#d95f02;" x="242.691" xlink:href="#mfd58b9bc7d" y="281.192931"/>
     <use style="fill:#0000ff;stroke:#d95f02;" x="242.691" xlink:href="#mfd58b9bc7d" y="249.185697"/>
     <use style="fill:#0000ff;stroke:#d95f02;" x="242.691" xlink:href="#mfd58b9bc7d" y="239.278718"/>
     <use style="fill:#0000ff;stroke:#d95f02;" x="242.691" xlink:href="#mfd58b9bc7d" y="238.217181"/>
     <use style="fill:#0000ff;stroke:#d95f02;" x="242.691" xlink:href="#mfd58b9bc7d" y="235.043067"/>
     <use style="fill:#0000ff;stroke:#d95f02;" x="242.691" xlink:href="#mfd58b9bc7d" y="234.836036"/>
     <use style="fill:#0000ff;stroke:#d95f02;" x="242.691" xlink:href="#mfd58b9bc7d" y="257.069236"/>
     <use style="fill:#0000ff;stroke:#d95f02;" x="242.691" xlink:href="#mfd58b9bc7d" y="291.733289"/>
     <use style="fill:#0000ff;stroke:#d95f02;" x="242.691" xlink:href="#mfd58b9bc7d" y="332.99936"/>
     <use style="fill:#0000ff;stroke:#d95f02;" x="242.691" xlink:href="#mfd58b9bc7d" y="369.668542"/>
     <use style="fill:#0000ff;stroke:#d95f02;" x="242.691" xlink:href="#mfd58b9bc7d" y="412.88938"/>
     <use style="fill:#0000ff;stroke:#d95f02;" x="242.691" xlink:href="#mfd58b9bc7d" y="430.903911"/>
     <use style="fill:#0000ff;stroke:#d95f02;" x="242.691" xlink:href="#mfd58b9bc7d" y="424.330986"/>
     <use style="fill:#0000ff;stroke:#d95f02;" x="242.691" xlink:href="#mfd58b9bc7d" y="421.070592"/>
     <use style="fill:#0000ff;stroke:#d95f02;" x="242.691" xlink:href="#mfd58b9bc7d" y="421.109924"/>
     <use style="fill:#0000ff;stroke:#d95f02;" x="242.691" xlink:href="#mfd58b9bc7d" y="423.271273"/>
     <use style="fill:#0000ff;stroke:#d95f02;" x="242.691" xlink:href="#mfd58b9bc7d" y="423.637834"/>
     <use style="fill:#0000ff;stroke:#d95f02;" x="242.691" xlink:href="#mfd58b9bc7d" y="420.71987"/>
     <use style="fill:#0000ff;stroke:#d95f02;" x="242.691" xlink:href="#mfd58b9bc7d" y="423.326605"/>
     <use style="fill:#0000ff;stroke:#d95f02;" x="242.691" xlink:href="#mfd58b9bc7d" y="429.420408"/>
     <use style="fill:#0000ff;stroke:#d95f02;" x="242.691" xlink:href="#mfd58b9bc7d" y="425.967337"/>
     <use style="fill:#0000ff;stroke:#d95f02;" x="242.691" xlink:href="#mfd58b9bc7d" y="430.431519"/>
    </g>
   </g>
   <g id="line2d_51">
    <path clip-path="url(#p2f55a73da4)" d="M 292.934925 505.541369 
L 310.668075 505.541369 
L 310.668075 478.414664 
L 292.934925 478.414664 
L 292.934925 505.541369 
" style="fill:none;stroke:#7570b3;stroke-linecap:round;"/>
   </g>
   <g id="line2d_52">
    <path clip-path="url(#p2f55a73da4)" d="M 301.8015 505.541369 
L 301.8015 539.408662 
" style="fill:none;stroke:#7570b3;stroke-linecap:round;"/>
   </g>
   <g id="line2d_53">
    <path clip-path="url(#p2f55a73da4)" d="M 301.8015 478.414664 
L 301.8015 438.850479 
" style="fill:none;stroke:#7570b3;stroke-linecap:round;"/>
   </g>
   <g id="line2d_54">
    <path clip-path="url(#p2f55a73da4)" d="M 297.368212 539.408662 
L 306.234787 539.408662 
" style="fill:none;stroke:#7570b3;stroke-linecap:round;"/>
   </g>
   <g id="line2d_55">
    <path clip-path="url(#p2f55a73da4)" d="M 297.368212 438.850479 
L 306.234787 438.850479 
" style="fill:none;stroke:#7570b3;stroke-linecap:round;"/>
   </g>
   <g id="line2d_56">
    <defs>
     <path d="M -3 0 
L 3 0 
M 0 3 
L 0 -3 
" id="m0ec68120a2" style="stroke:#7570b3;"/>
    </defs>
    <g clip-path="url(#p2f55a73da4)">
     <use style="fill:#0000ff;stroke:#7570b3;" x="301.8015" xlink:href="#m0ec68120a2" y="427.250864"/>
     <use style="fill:#0000ff;stroke:#7570b3;" x="301.8015" xlink:href="#m0ec68120a2" y="420.917186"/>
     <use style="fill:#0000ff;stroke:#7570b3;" x="301.8015" xlink:href="#m0ec68120a2" y="424.889822"/>
     <use style="fill:#0000ff;stroke:#7570b3;" x="301.8015" xlink:href="#m0ec68120a2" y="422.776832"/>
     <use style="fill:#0000ff;stroke:#7570b3;" x="301.8015" xlink:href="#m0ec68120a2" y="412.257228"/>
     <use style="fill:#0000ff;stroke:#7570b3;" x="301.8015" xlink:href="#m0ec68120a2" y="418.208158"/>
     <use style="fill:#0000ff;stroke:#7570b3;" x="301.8015" xlink:href="#m0ec68120a2" y="416.265362"/>
     <use style="fill:#0000ff;stroke:#7570b3;" x="301.8015" xlink:href="#m0ec68120a2" y="418.085349"/>
     <use style="fill:#0000ff;stroke:#7570b3;" x="301.8015" xlink:href="#m0ec68120a2" y="424.560623"/>
     <use style="fill:#0000ff;stroke:#7570b3;" x="301.8015" xlink:href="#m0ec68120a2" y="426.910998"/>
     <use style="fill:#0000ff;stroke:#7570b3;" x="301.8015" xlink:href="#m0ec68120a2" y="424.306228"/>
     <use style="fill:#0000ff;stroke:#7570b3;" x="301.8015" xlink:href="#m0ec68120a2" y="425.951418"/>
     <use style="fill:#0000ff;stroke:#7570b3;" x="301.8015" xlink:href="#m0ec68120a2" y="431.316821"/>
     <use style="fill:#0000ff;stroke:#7570b3;" x="301.8015" xlink:href="#m0ec68120a2" y="432.425112"/>
     <use style="fill:#0000ff;stroke:#7570b3;" x="301.8015" xlink:href="#m0ec68120a2" y="432.023855"/>
     <use style="fill:#0000ff;stroke:#7570b3;" x="301.8015" xlink:href="#m0ec68120a2" y="425.287383"/>
     <use style="fill:#0000ff;stroke:#7570b3;" x="301.8015" xlink:href="#m0ec68120a2" y="423.790485"/>
     <use style="fill:#0000ff;stroke:#7570b3;" x="301.8015" xlink:href="#m0ec68120a2" y="424.965996"/>
     <use style="fill:#0000ff;stroke:#7570b3;" x="301.8015" xlink:href="#m0ec68120a2" y="430.833158"/>
     <use style="fill:#0000ff;stroke:#7570b3;" x="301.8015" xlink:href="#m0ec68120a2" y="437.347603"/>
     <use style="fill:#0000ff;stroke:#7570b3;" x="301.8015" xlink:href="#m0ec68120a2" y="432.165912"/>
     <use style="fill:#0000ff;stroke:#7570b3;" x="301.8015" xlink:href="#m0ec68120a2" y="430.073627"/>
     <use style="fill:#0000ff;stroke:#7570b3;" x="301.8015" xlink:href="#m0ec68120a2" y="428.048628"/>
     <use style="fill:#0000ff;stroke:#7570b3;" x="301.8015" xlink:href="#m0ec68120a2" y="426.759151"/>
     <use style="fill:#0000ff;stroke:#7570b3;" x="301.8015" xlink:href="#m0ec68120a2" y="429.837692"/>
     <use style="fill:#0000ff;stroke:#7570b3;" x="301.8015" xlink:href="#m0ec68120a2" y="431.160969"/>
     <use style="fill:#0000ff;stroke:#7570b3;" x="301.8015" xlink:href="#m0ec68120a2" y="434.313907"/>
     <use style="fill:#0000ff;stroke:#7570b3;" x="301.8015" xlink:href="#m0ec68120a2" y="435.693983"/>
     <use style="fill:#0000ff;stroke:#7570b3;" x="301.8015" xlink:href="#m0ec68120a2" y="431.791486"/>
    </g>
   </g>
   <g id="line2d_57">
    <path clip-path="url(#p2f55a73da4)" d="M 360.912 550.4472 
L 360.912 74.2176 
" style="fill:none;stroke:#000000;stroke-dasharray:0.5,0.825;stroke-dashoffset:0;stroke-width:0.5;"/>
   </g>
   <g id="line2d_58">
    <path clip-path="url(#p2f55a73da4)" d="M 411.155925 174.851576 
L 428.889075 174.851576 
L 428.889075 124.251833 
L 411.155925 124.251833 
L 411.155925 174.851576 
" style="fill:none;stroke:#1b9e77;stroke-linecap:round;"/>
   </g>
   <g id="line2d_59">
    <path clip-path="url(#p2f55a73da4)" d="M 420.0225 174.851576 
L 420.0225 248.798941 
" style="fill:none;stroke:#1b9e77;stroke-linecap:round;"/>
   </g>
   <g id="line2d_60">
    <path clip-path="url(#p2f55a73da4)" d="M 420.0225 124.251833 
L 420.0225 94.327617 
" style="fill:none;stroke:#1b9e77;stroke-linecap:round;"/>
   </g>
   <g id="line2d_61">
    <path clip-path="url(#p2f55a73da4)" d="M 415.589212 248.798941 
L 424.455787 248.798941 
" style="fill:none;stroke:#1b9e77;stroke-linecap:round;"/>
   </g>
   <g id="line2d_62">
    <path clip-path="url(#p2f55a73da4)" d="M 415.589212 94.327617 
L 424.455787 94.327617 
" style="fill:none;stroke:#1b9e77;stroke-linecap:round;"/>
   </g>
   <g id="line2d_63">
    <g clip-path="url(#p2f55a73da4)">
     <use style="fill:#0000ff;stroke:#1b9e77;" x="420.0225" xlink:href="#m999f379ac9" y="339.574705"/>
     <use style="fill:#0000ff;stroke:#1b9e77;" x="420.0225" xlink:href="#m999f379ac9" y="302.479181"/>
     <use style="fill:#0000ff;stroke:#1b9e77;" x="420.0225" xlink:href="#m999f379ac9" y="269.435826"/>
     <use style="fill:#0000ff;stroke:#1b9e77;" x="420.0225" xlink:href="#m999f379ac9" y="282.568343"/>
     <use style="fill:#0000ff;stroke:#1b9e77;" x="420.0225" xlink:href="#m999f379ac9" y="297.140188"/>
     <use style="fill:#0000ff;stroke:#1b9e77;" x="420.0225" xlink:href="#m999f379ac9" y="309.707972"/>
    </g>
   </g>
   <g id="line2d_64">
    <path clip-path="url(#p2f55a73da4)" d="M 470.266425 165.61382 
L 487.999575 165.61382 
L 487.999575 122.687707 
L 470.266425 122.687707 
L 470.266425 165.61382 
" style="fill:none;stroke:#d95f02;stroke-linecap:round;"/>
   </g>
   <g id="line2d_65">
    <path clip-path="url(#p2f55a73da4)" d="M 479.133 165.61382 
L 479.133 217.344427 
" style="fill:none;stroke:#d95f02;stroke-linecap:round;"/>
   </g>
   <g id="line2d_66">
    <path clip-path="url(#p2f55a73da4)" d="M 479.133 122.687707 
L 479.133 88.577355 
" style="fill:none;stroke:#d95f02;stroke-linecap:round;"/>
   </g>
   <g id="line2d_67">
    <path clip-path="url(#p2f55a73da4)" d="M 474.699712 217.344427 
L 483.566287 217.344427 
" style="fill:none;stroke:#d95f02;stroke-linecap:round;"/>
   </g>
   <g id="line2d_68">
    <path clip-path="url(#p2f55a73da4)" d="M 474.699712 88.577355 
L 483.566287 88.577355 
" style="fill:none;stroke:#d95f02;stroke-linecap:round;"/>
   </g>
   <g id="line2d_69">
    <g clip-path="url(#p2f55a73da4)">
     <use style="fill:#0000ff;stroke:#d95f02;" x="479.133" xlink:href="#mfd58b9bc7d" y="322.713028"/>
     <use style="fill:#0000ff;stroke:#d95f02;" x="479.133" xlink:href="#mfd58b9bc7d" y="286.336695"/>
     <use style="fill:#0000ff;stroke:#d95f02;" x="479.133" xlink:href="#mfd58b9bc7d" y="247.706921"/>
     <use style="fill:#0000ff;stroke:#d95f02;" x="479.133" xlink:href="#mfd58b9bc7d" y="244.706805"/>
     <use style="fill:#0000ff;stroke:#d95f02;" x="479.133" xlink:href="#mfd58b9bc7d" y="278.296349"/>
     <use style="fill:#0000ff;stroke:#d95f02;" x="479.133" xlink:href="#mfd58b9bc7d" y="313.239453"/>
     <use style="fill:#0000ff;stroke:#d95f02;" x="479.133" xlink:href="#mfd58b9bc7d" y="347.82221"/>
     <use style="fill:#0000ff;stroke:#d95f02;" x="479.133" xlink:href="#mfd58b9bc7d" y="368.197759"/>
     <use style="fill:#0000ff;stroke:#d95f02;" x="479.133" xlink:href="#mfd58b9bc7d" y="346.372912"/>
     <use style="fill:#0000ff;stroke:#d95f02;" x="479.133" xlink:href="#mfd58b9bc7d" y="334.869634"/>
     <use style="fill:#0000ff;stroke:#d95f02;" x="479.133" xlink:href="#mfd58b9bc7d" y="336.265882"/>
     <use style="fill:#0000ff;stroke:#d95f02;" x="479.133" xlink:href="#mfd58b9bc7d" y="333.105285"/>
     <use style="fill:#0000ff;stroke:#d95f02;" x="479.133" xlink:href="#mfd58b9bc7d" y="321.063941"/>
     <use style="fill:#0000ff;stroke:#d95f02;" x="479.133" xlink:href="#mfd58b9bc7d" y="300.502644"/>
     <use style="fill:#0000ff;stroke:#d95f02;" x="479.133" xlink:href="#mfd58b9bc7d" y="275.537006"/>
     <use style="fill:#0000ff;stroke:#d95f02;" x="479.133" xlink:href="#mfd58b9bc7d" y="240.135871"/>
     <use style="fill:#0000ff;stroke:#d95f02;" x="479.133" xlink:href="#mfd58b9bc7d" y="230.54938"/>
     <use style="fill:#0000ff;stroke:#d95f02;" x="479.133" xlink:href="#mfd58b9bc7d" y="272.094664"/>
     <use style="fill:#0000ff;stroke:#d95f02;" x="479.133" xlink:href="#mfd58b9bc7d" y="314.58182"/>
     <use style="fill:#0000ff;stroke:#d95f02;" x="479.133" xlink:href="#mfd58b9bc7d" y="355.024152"/>
    </g>
   </g>
   <g id="line2d_70">
    <path clip-path="url(#p2f55a73da4)" d="M 529.376925 143.843664 
L 547.110075 143.843664 
L 547.110075 113.05134 
L 529.376925 113.05134 
L 529.376925 143.843664 
" style="fill:none;stroke:#7570b3;stroke-linecap:round;"/>
   </g>
   <g id="line2d_71">
    <path clip-path="url(#p2f55a73da4)" d="M 538.2435 143.843664 
L 538.2435 187.037314 
" style="fill:none;stroke:#7570b3;stroke-linecap:round;"/>
   </g>
   <g id="line2d_72">
    <path clip-path="url(#p2f55a73da4)" d="M 538.2435 113.05134 
L 538.2435 78.886518 
" style="fill:none;stroke:#7570b3;stroke-linecap:round;"/>
   </g>
   <g id="line2d_73">
    <path clip-path="url(#p2f55a73da4)" d="M 533.810212 187.037314 
L 542.676787 187.037314 
" style="fill:none;stroke:#7570b3;stroke-linecap:round;"/>
   </g>
   <g id="line2d_74">
    <path clip-path="url(#p2f55a73da4)" d="M 533.810212 78.886518 
L 542.676787 78.886518 
" style="fill:none;stroke:#7570b3;stroke-linecap:round;"/>
   </g>
   <g id="line2d_75">
    <g clip-path="url(#p2f55a73da4)">
     <use style="fill:#0000ff;stroke:#7570b3;" x="538.2435" xlink:href="#m0ec68120a2" y="346.155155"/>
     <use style="fill:#0000ff;stroke:#7570b3;" x="538.2435" xlink:href="#m0ec68120a2" y="295.317738"/>
     <use style="fill:#0000ff;stroke:#7570b3;" x="538.2435" xlink:href="#m0ec68120a2" y="246.050138"/>
     <use style="fill:#0000ff;stroke:#7570b3;" x="538.2435" xlink:href="#m0ec68120a2" y="207.236914"/>
     <use style="fill:#0000ff;stroke:#7570b3;" x="538.2435" xlink:href="#m0ec68120a2" y="193.758694"/>
     <use style="fill:#0000ff;stroke:#7570b3;" x="538.2435" xlink:href="#m0ec68120a2" y="195.872869"/>
     <use style="fill:#0000ff;stroke:#7570b3;" x="538.2435" xlink:href="#m0ec68120a2" y="205.371485"/>
     <use style="fill:#0000ff;stroke:#7570b3;" x="538.2435" xlink:href="#m0ec68120a2" y="206.118165"/>
     <use style="fill:#0000ff;stroke:#7570b3;" x="538.2435" xlink:href="#m0ec68120a2" y="248.15256"/>
     <use style="fill:#0000ff;stroke:#7570b3;" x="538.2435" xlink:href="#m0ec68120a2" y="289.712687"/>
     <use style="fill:#0000ff;stroke:#7570b3;" x="538.2435" xlink:href="#m0ec68120a2" y="332.339468"/>
     <use style="fill:#0000ff;stroke:#7570b3;" x="538.2435" xlink:href="#m0ec68120a2" y="372.825407"/>
     <use style="fill:#0000ff;stroke:#7570b3;" x="538.2435" xlink:href="#m0ec68120a2" y="438.668618"/>
    </g>
   </g>
   <g id="line2d_76">
    <path clip-path="url(#p2f55a73da4)" d="M 597.354 550.4472 
L 597.354 74.2176 
" style="fill:none;stroke:#000000;stroke-dasharray:0.5,0.825;stroke-dashoffset:0;stroke-width:0.5;"/>
   </g>
   <g id="line2d_77">
    <path clip-path="url(#p2f55a73da4)" d="M 174.713925 480.717296 
L 192.447075 480.717296 
" style="fill:none;stroke:#ff7f0e;stroke-linecap:round;"/>
   </g>
   <g id="line2d_78">
    <path clip-path="url(#p2f55a73da4)" d="M 233.824425 485.268393 
L 251.557575 485.268393 
" style="fill:none;stroke:#ff7f0e;stroke-linecap:round;"/>
   </g>
   <g id="line2d_79">
    <path clip-path="url(#p2f55a73da4)" d="M 292.934925 491.831487 
L 310.668075 491.831487 
" style="fill:none;stroke:#ff7f0e;stroke-linecap:round;"/>
   </g>
   <g id="line2d_80">
    <path clip-path="url(#p2f55a73da4)" d="M 411.155925 136.49497 
L 428.889075 136.49497 
" style="fill:none;stroke:#ff7f0e;stroke-linecap:round;"/>
   </g>
   <g id="line2d_81">
    <path clip-path="url(#p2f55a73da4)" d="M 470.266425 138.707308 
L 487.999575 138.707308 
" style="fill:none;stroke:#ff7f0e;stroke-linecap:round;"/>
   </g>
   <g id="line2d_82">
    <path clip-path="url(#p2f55a73da4)" d="M 529.376925 126.104395 
L 547.110075 126.104395 
" style="fill:none;stroke:#ff7f0e;stroke-linecap:round;"/>
   </g>
   <g id="patch_3">
    <path d="M 124.47 550.4472 
L 124.47 74.2176 
" style="fill:none;"/>
   </g>
   <g id="patch_4">
    <path d="M 833.796 550.4472 
L 833.796 74.2176 
" style="fill:none;"/>
   </g>
   <g id="patch_5">
    <path d="M 124.47 550.4472 
L 833.796 550.4472 
" style="fill:none;"/>
   </g>
   <g id="patch_6">
    <path d="M 124.47 74.2176 
L 833.796 74.2176 
" style="fill:none;"/>
   </g>
   <g id="text_17">
    <!-- Download -->
    <g transform="translate(217.837094 69.455304)scale(0.1 -0.1)">
     <defs>
      <path d="M 19.671875 64.796875 
L 19.671875 8.109375 
L 31.59375 8.109375 
Q 46.6875 8.109375 53.6875 14.9375 
Q 60.6875 21.78125 60.6875 36.53125 
Q 60.6875 51.171875 53.6875 57.984375 
Q 46.6875 64.796875 31.59375 64.796875 
z
M 9.8125 72.90625 
L 30.078125 72.90625 
Q 51.265625 72.90625 61.171875 64.09375 
Q 71.09375 55.28125 71.09375 36.53125 
Q 71.09375 17.671875 61.125 8.828125 
Q 51.171875 0 30.078125 0 
L 9.8125 0 
z
" id="DejaVuSans-68"/>
      <path d="M 30.609375 48.390625 
Q 23.390625 48.390625 19.1875 42.75 
Q 14.984375 37.109375 14.984375 27.296875 
Q 14.984375 17.484375 19.15625 11.84375 
Q 23.34375 6.203125 30.609375 6.203125 
Q 37.796875 6.203125 41.984375 11.859375 
Q 46.1875 17.53125 46.1875 27.296875 
Q 46.1875 37.015625 41.984375 42.703125 
Q 37.796875 48.390625 30.609375 48.390625 
z
M 30.609375 56 
Q 42.328125 56 49.015625 48.375 
Q 55.71875 40.765625 55.71875 27.296875 
Q 55.71875 13.875 49.015625 6.21875 
Q 42.328125 -1.421875 30.609375 -1.421875 
Q 18.84375 -1.421875 12.171875 6.21875 
Q 5.515625 13.875 5.515625 27.296875 
Q 5.515625 40.765625 12.171875 48.375 
Q 18.84375 56 30.609375 56 
z
" id="DejaVuSans-111"/>
      <path d="M 4.203125 54.6875 
L 13.1875 54.6875 
L 24.421875 12.015625 
L 35.59375 54.6875 
L 46.1875 54.6875 
L 57.421875 12.015625 
L 68.609375 54.6875 
L 77.59375 54.6875 
L 63.28125 0 
L 52.6875 0 
L 40.921875 44.828125 
L 29.109375 0 
L 18.5 0 
z
" id="DejaVuSans-119"/>
      <path d="M 9.421875 75.984375 
L 18.40625 75.984375 
L 18.40625 0 
L 9.421875 0 
z
" id="DejaVuSans-108"/>
      <path d="M 34.28125 27.484375 
Q 23.390625 27.484375 19.1875 25 
Q 14.984375 22.515625 14.984375 16.5 
Q 14.984375 11.71875 18.140625 8.90625 
Q 21.296875 6.109375 26.703125 6.109375 
Q 34.1875 6.109375 38.703125 11.40625 
Q 43.21875 16.703125 43.21875 25.484375 
L 43.21875 27.484375 
z
M 52.203125 31.203125 
L 52.203125 0 
L 43.21875 0 
L 43.21875 8.296875 
Q 40.140625 3.328125 35.546875 0.953125 
Q 30.953125 -1.421875 24.3125 -1.421875 
Q 15.921875 -1.421875 10.953125 3.296875 
Q 6 8.015625 6 15.921875 
Q 6 25.140625 12.171875 29.828125 
Q 18.359375 34.515625 30.609375 34.515625 
L 43.21875 34.515625 
L 43.21875 35.40625 
Q 43.21875 41.609375 39.140625 45 
Q 35.0625 48.390625 27.6875 48.390625 
Q 23 48.390625 18.546875 47.265625 
Q 14.109375 46.140625 10.015625 43.890625 
L 10.015625 52.203125 
Q 14.9375 54.109375 19.578125 55.046875 
Q 24.21875 56 28.609375 56 
Q 40.484375 56 46.34375 49.84375 
Q 52.203125 43.703125 52.203125 31.203125 
z
" id="DejaVuSans-97"/>
      <path d="M 45.40625 46.390625 
L 45.40625 75.984375 
L 54.390625 75.984375 
L 54.390625 0 
L 45.40625 0 
L 45.40625 8.203125 
Q 42.578125 3.328125 38.25 0.953125 
Q 33.9375 -1.421875 27.875 -1.421875 
Q 17.96875 -1.421875 11.734375 6.484375 
Q 5.515625 14.40625 5.515625 27.296875 
Q 5.515625 40.1875 11.734375 48.09375 
Q 17.96875 56 27.875 56 
Q 33.9375 56 38.25 53.625 
Q 42.578125 51.265625 45.40625 46.390625 
z
M 14.796875 27.296875 
Q 14.796875 17.390625 18.875 11.75 
Q 22.953125 6.109375 30.078125 6.109375 
Q 37.203125 6.109375 41.296875 11.75 
Q 45.40625 17.390625 45.40625 27.296875 
Q 45.40625 37.203125 41.296875 42.84375 
Q 37.203125 48.484375 30.078125 48.484375 
Q 22.953125 48.484375 18.875 42.84375 
Q 14.796875 37.203125 14.796875 27.296875 
z
" id="DejaVuSans-100"/>
     </defs>
     <use xlink:href="#DejaVuSans-68"/>
     <use x="77.001953" xlink:href="#DejaVuSans-111"/>
     <use x="138.183594" xlink:href="#DejaVuSans-119"/>
     <use x="219.970703" xlink:href="#DejaVuSans-110"/>
     <use x="283.349609" xlink:href="#DejaVuSans-108"/>
     <use x="311.132812" xlink:href="#DejaVuSans-111"/>
     <use x="372.314453" xlink:href="#DejaVuSans-97"/>
     <use x="433.59375" xlink:href="#DejaVuSans-100"/>
    </g>
   </g>
   <g id="text_18">
    <!-- Upload -->
    <g transform="translate(461.612687 69.455304)scale(0.1 -0.1)">
     <defs>
      <path d="M 8.6875 72.90625 
L 18.609375 72.90625 
L 18.609375 28.609375 
Q 18.609375 16.890625 22.84375 11.734375 
Q 27.09375 6.59375 36.625 6.59375 
Q 46.09375 6.59375 50.34375 11.734375 
Q 54.59375 16.890625 54.59375 28.609375 
L 54.59375 72.90625 
L 64.5 72.90625 
L 64.5 27.390625 
Q 64.5 13.140625 57.4375 5.859375 
Q 50.390625 -1.421875 36.625 -1.421875 
Q 22.796875 -1.421875 15.734375 5.859375 
Q 8.6875 13.140625 8.6875 27.390625 
z
" id="DejaVuSans-85"/>
      <path d="M 18.109375 8.203125 
L 18.109375 -20.796875 
L 9.078125 -20.796875 
L 9.078125 54.6875 
L 18.109375 54.6875 
L 18.109375 46.390625 
Q 20.953125 51.265625 25.265625 53.625 
Q 29.59375 56 35.59375 56 
Q 45.5625 56 51.78125 48.09375 
Q 58.015625 40.1875 58.015625 27.296875 
Q 58.015625 14.40625 51.78125 6.484375 
Q 45.5625 -1.421875 35.59375 -1.421875 
Q 29.59375 -1.421875 25.265625 0.953125 
Q 20.953125 3.328125 18.109375 8.203125 
z
M 48.6875 27.296875 
Q 48.6875 37.203125 44.609375 42.84375 
Q 40.53125 48.484375 33.40625 48.484375 
Q 26.265625 48.484375 22.1875 42.84375 
Q 18.109375 37.203125 18.109375 27.296875 
Q 18.109375 17.390625 22.1875 11.75 
Q 26.265625 6.109375 33.40625 6.109375 
Q 40.53125 6.109375 44.609375 11.75 
Q 48.6875 17.390625 48.6875 27.296875 
z
" id="DejaVuSans-112"/>
     </defs>
     <use xlink:href="#DejaVuSans-85"/>
     <use x="73.193359" xlink:href="#DejaVuSans-112"/>
     <use x="136.669922" xlink:href="#DejaVuSans-108"/>
     <use x="164.453125" xlink:href="#DejaVuSans-111"/>
     <use x="225.634766" xlink:href="#DejaVuSans-97"/>
     <use x="286.914062" xlink:href="#DejaVuSans-100"/>
    </g>
   </g>
   <g id="text_19">
    <!-- Ping (ms) -->
    <g transform="translate(691.975 69.455304)scale(0.1 -0.1)">
     <defs>
      <path d="M 19.671875 64.796875 
L 19.671875 37.40625 
L 32.078125 37.40625 
Q 38.96875 37.40625 42.71875 40.96875 
Q 46.484375 44.53125 46.484375 51.125 
Q 46.484375 57.671875 42.71875 61.234375 
Q 38.96875 64.796875 32.078125 64.796875 
z
M 9.8125 72.90625 
L 32.078125 72.90625 
Q 44.34375 72.90625 50.609375 67.359375 
Q 56.890625 61.8125 56.890625 51.125 
Q 56.890625 40.328125 50.609375 34.8125 
Q 44.34375 29.296875 32.078125 29.296875 
L 19.671875 29.296875 
L 19.671875 0 
L 9.8125 0 
z
" id="DejaVuSans-80"/>
      <path d="M 45.40625 27.984375 
Q 45.40625 37.75 41.375 43.109375 
Q 37.359375 48.484375 30.078125 48.484375 
Q 22.859375 48.484375 18.828125 43.109375 
Q 14.796875 37.75 14.796875 27.984375 
Q 14.796875 18.265625 18.828125 12.890625 
Q 22.859375 7.515625 30.078125 7.515625 
Q 37.359375 7.515625 41.375 12.890625 
Q 45.40625 18.265625 45.40625 27.984375 
z
M 54.390625 6.78125 
Q 54.390625 -7.171875 48.1875 -13.984375 
Q 42 -20.796875 29.203125 -20.796875 
Q 24.46875 -20.796875 20.265625 -20.09375 
Q 16.0625 -19.390625 12.109375 -17.921875 
L 12.109375 -9.1875 
Q 16.0625 -11.328125 19.921875 -12.34375 
Q 23.78125 -13.375 27.78125 -13.375 
Q 36.625 -13.375 41.015625 -8.765625 
Q 45.40625 -4.15625 45.40625 5.171875 
L 45.40625 9.625 
Q 42.625 4.78125 38.28125 2.390625 
Q 33.9375 0 27.875 0 
Q 17.828125 0 11.671875 7.65625 
Q 5.515625 15.328125 5.515625 27.984375 
Q 5.515625 40.671875 11.671875 48.328125 
Q 17.828125 56 27.875 56 
Q 33.9375 56 38.28125 53.609375 
Q 42.625 51.21875 45.40625 46.390625 
L 45.40625 54.6875 
L 54.390625 54.6875 
z
" id="DejaVuSans-103"/>
      <path id="DejaVuSans-32"/>
      <path d="M 31 75.875 
Q 24.46875 64.65625 21.28125 53.65625 
Q 18.109375 42.671875 18.109375 31.390625 
Q 18.109375 20.125 21.3125 9.0625 
Q 24.515625 -2 31 -13.1875 
L 23.1875 -13.1875 
Q 15.875 -1.703125 12.234375 9.375 
Q 8.59375 20.453125 8.59375 31.390625 
Q 8.59375 42.28125 12.203125 53.3125 
Q 15.828125 64.359375 23.1875 75.875 
z
" id="DejaVuSans-40"/>
      <path d="M 52 44.1875 
Q 55.375 50.25 60.0625 53.125 
Q 64.75 56 71.09375 56 
Q 79.640625 56 84.28125 50.015625 
Q 88.921875 44.046875 88.921875 33.015625 
L 88.921875 0 
L 79.890625 0 
L 79.890625 32.71875 
Q 79.890625 40.578125 77.09375 44.375 
Q 74.3125 48.1875 68.609375 48.1875 
Q 61.625 48.1875 57.5625 43.546875 
Q 53.515625 38.921875 53.515625 30.90625 
L 53.515625 0 
L 44.484375 0 
L 44.484375 32.71875 
Q 44.484375 40.625 41.703125 44.40625 
Q 38.921875 48.1875 33.109375 48.1875 
Q 26.21875 48.1875 22.15625 43.53125 
Q 18.109375 38.875 18.109375 30.90625 
L 18.109375 0 
L 9.078125 0 
L 9.078125 54.6875 
L 18.109375 54.6875 
L 18.109375 46.1875 
Q 21.1875 51.21875 25.484375 53.609375 
Q 29.78125 56 35.6875 56 
Q 41.65625 56 45.828125 52.96875 
Q 50 49.953125 52 44.1875 
z
" id="DejaVuSans-109"/>
      <path d="M 8.015625 75.875 
L 15.828125 75.875 
Q 23.140625 64.359375 26.78125 53.3125 
Q 30.421875 42.28125 30.421875 31.390625 
Q 30.421875 20.453125 26.78125 9.375 
Q 23.140625 -1.703125 15.828125 -13.1875 
L 8.015625 -13.1875 
Q 14.5 -2 17.703125 9.0625 
Q 20.90625 20.125 20.90625 31.390625 
Q 20.90625 42.671875 17.703125 53.65625 
Q 14.5 64.65625 8.015625 75.875 
z
" id="DejaVuSans-41"/>
     </defs>
     <use xlink:href="#DejaVuSans-80"/>
     <use x="58.052734" xlink:href="#DejaVuSans-105"/>
     <use x="85.835938" xlink:href="#DejaVuSans-110"/>
     <use x="149.214844" xlink:href="#DejaVuSans-103"/>
     <use x="212.691406" xlink:href="#DejaVuSans-32"/>
     <use x="244.478516" xlink:href="#DejaVuSans-40"/>
     <use x="283.492188" xlink:href="#DejaVuSans-109"/>
     <use x="380.904297" xlink:href="#DejaVuSans-115"/>
     <use x="433.003906" xlink:href="#DejaVuSans-41"/>
    </g>
   </g>
   <g id="legend_1">
    <g id="line2d_83">
     <path d="M 915.15386 80.963598 
L 931.81386 80.963598 
" style="fill:none;stroke:#1b9e77;stroke-linecap:round;"/>
    </g>
    <g id="line2d_84"/>
    <g id="text_20">
     <!-- BBR-v3 -->
     <g transform="translate(938.47786 83.879098)scale(0.0833 -0.0833)">
      <use xlink:href="#DejaVuSans-66"/>
      <use x="68.603516" xlink:href="#DejaVuSans-66"/>
      <use x="137.207031" xlink:href="#DejaVuSans-82"/>
      <use x="202.689453" xlink:href="#DejaVuSans-45"/>
      <use x="236.148438" xlink:href="#DejaVuSans-118"/>
      <use x="295.328125" xlink:href="#DejaVuSans-51"/>
     </g>
    </g>
    <g id="line2d_85">
     <path d="M 915.15386 93.190477 
L 931.81386 93.190477 
" style="fill:none;stroke:#d95f02;stroke-linecap:round;"/>
    </g>
    <g id="line2d_86"/>
    <g id="text_21">
     <!-- Cubic -->
     <g transform="translate(938.47786 96.105977)scale(0.0833 -0.0833)">
      <use xlink:href="#DejaVuSans-67"/>
      <use x="69.824219" xlink:href="#DejaVuSans-117"/>
      <use x="133.203125" xlink:href="#DejaVuSans-98"/>
      <use x="196.679688" xlink:href="#DejaVuSans-105"/>
      <use x="224.462891" xlink:href="#DejaVuSans-99"/>
     </g>
    </g>
    <g id="line2d_87">
     <path d="M 915.15386 105.417355 
L 931.81386 105.417355 
" style="fill:none;stroke:#7570b3;stroke-linecap:round;"/>
    </g>
    <g id="line2d_88"/>
    <g id="text_22">
     <!-- BBR-n+ -->
     <g transform="translate(938.47786 108.332855)scale(0.0833 -0.0833)">
      <use xlink:href="#DejaVuSans-66"/>
      <use x="68.603516" xlink:href="#DejaVuSans-66"/>
      <use x="137.207031" xlink:href="#DejaVuSans-82"/>
      <use x="202.689453" xlink:href="#DejaVuSans-45"/>
      <use x="238.773438" xlink:href="#DejaVuSans-110"/>
      <use x="302.152344" xlink:href="#DejaVuSans-43"/>
     </g>
    </g>
   </g>
  </g>
  <g id="axes_2">
   <g id="matplotlib.axis_3">
    <g id="ytick_30">
     <g id="line2d_89"/>
     <g id="text_23">
      <!-- 2 -->
      <g transform="translate(837.296 501.163756)scale(0.1 -0.1)">
       <use xlink:href="#DejaVuSans-50"/>
      </g>
     </g>
    </g>
    <g id="ytick_31">
     <g id="line2d_90"/>
     <g id="text_24">
      <!-- 4 -->
      <g transform="translate(837.296 432.043291)scale(0.1 -0.1)">
       <defs>
        <path d="M 37.796875 64.3125 
L 12.890625 25.390625 
L 37.796875 25.390625 
z
M 35.203125 72.90625 
L 47.609375 72.90625 
L 47.609375 25.390625 
L 58.015625 25.390625 
L 58.015625 17.1875 
L 47.609375 17.1875 
L 47.609375 0 
L 37.796875 0 
L 37.796875 17.1875 
L 4.890625 17.1875 
L 4.890625 26.703125 
z
" id="DejaVuSans-52"/>
       </defs>
       <use xlink:href="#DejaVuSans-52"/>
      </g>
     </g>
    </g>
    <g id="ytick_32">
     <g id="line2d_91"/>
     <g id="text_25">
      <!-- 6 -->
      <g transform="translate(837.296 362.922827)scale(0.1 -0.1)">
       <defs>
        <path d="M 33.015625 40.375 
Q 26.375 40.375 22.484375 35.828125 
Q 18.609375 31.296875 18.609375 23.390625 
Q 18.609375 15.53125 22.484375 10.953125 
Q 26.375 6.390625 33.015625 6.390625 
Q 39.65625 6.390625 43.53125 10.953125 
Q 47.40625 15.53125 47.40625 23.390625 
Q 47.40625 31.296875 43.53125 35.828125 
Q 39.65625 40.375 33.015625 40.375 
z
M 52.59375 71.296875 
L 52.59375 62.3125 
Q 48.875 64.0625 45.09375 64.984375 
Q 41.3125 65.921875 37.59375 65.921875 
Q 27.828125 65.921875 22.671875 59.328125 
Q 17.53125 52.734375 16.796875 39.40625 
Q 19.671875 43.65625 24.015625 45.921875 
Q 28.375 48.1875 33.59375 48.1875 
Q 44.578125 48.1875 50.953125 41.515625 
Q 57.328125 34.859375 57.328125 23.390625 
Q 57.328125 12.15625 50.6875 5.359375 
Q 44.046875 -1.421875 33.015625 -1.421875 
Q 20.359375 -1.421875 13.671875 8.265625 
Q 6.984375 17.96875 6.984375 36.375 
Q 6.984375 53.65625 15.1875 63.9375 
Q 23.390625 74.21875 37.203125 74.21875 
Q 40.921875 74.21875 44.703125 73.484375 
Q 48.484375 72.75 52.59375 71.296875 
z
" id="DejaVuSans-54"/>
       </defs>
       <use xlink:href="#DejaVuSans-54"/>
      </g>
     </g>
    </g>
    <g id="ytick_33">
     <g id="line2d_92"/>
     <g id="text_26">
      <!-- 8 -->
      <g transform="translate(837.296 293.802362)scale(0.1 -0.1)">
       <defs>
        <path d="M 31.78125 34.625 
Q 24.75 34.625 20.71875 30.859375 
Q 16.703125 27.09375 16.703125 20.515625 
Q 16.703125 13.921875 20.71875 10.15625 
Q 24.75 6.390625 31.78125 6.390625 
Q 38.8125 6.390625 42.859375 10.171875 
Q 46.921875 13.96875 46.921875 20.515625 
Q 46.921875 27.09375 42.890625 30.859375 
Q 38.875 34.625 31.78125 34.625 
z
M 21.921875 38.8125 
Q 15.578125 40.375 12.03125 44.71875 
Q 8.5 49.078125 8.5 55.328125 
Q 8.5 64.0625 14.71875 69.140625 
Q 20.953125 74.21875 31.78125 74.21875 
Q 42.671875 74.21875 48.875 69.140625 
Q 55.078125 64.0625 55.078125 55.328125 
Q 55.078125 49.078125 51.53125 44.71875 
Q 48 40.375 41.703125 38.8125 
Q 48.828125 37.15625 52.796875 32.3125 
Q 56.78125 27.484375 56.78125 20.515625 
Q 56.78125 9.90625 50.3125 4.234375 
Q 43.84375 -1.421875 31.78125 -1.421875 
Q 19.734375 -1.421875 13.25 4.234375 
Q 6.78125 9.90625 6.78125 20.515625 
Q 6.78125 27.484375 10.78125 32.3125 
Q 14.796875 37.15625 21.921875 38.8125 
z
M 18.3125 54.390625 
Q 18.3125 48.734375 21.84375 45.5625 
Q 25.390625 42.390625 31.78125 42.390625 
Q 38.140625 42.390625 41.71875 45.5625 
Q 45.3125 48.734375 45.3125 54.390625 
Q 45.3125 60.0625 41.71875 63.234375 
Q 38.140625 66.40625 31.78125 66.40625 
Q 25.390625 66.40625 21.84375 63.234375 
Q 18.3125 60.0625 18.3125 54.390625 
z
" id="DejaVuSans-56"/>
       </defs>
       <use xlink:href="#DejaVuSans-56"/>
      </g>
     </g>
    </g>
    <g id="ytick_34">
     <g id="line2d_93"/>
     <g id="text_27">
      <!-- 10 -->
      <g transform="translate(837.296 224.681898)scale(0.1 -0.1)">
       <use xlink:href="#DejaVuSans-49"/>
       <use x="63.623047" xlink:href="#DejaVuSans-48"/>
      </g>
     </g>
    </g>
    <g id="ytick_35">
     <g id="line2d_94"/>
     <g id="text_28">
      <!-- 12 -->
      <g transform="translate(837.296 155.561434)scale(0.1 -0.1)">
       <use xlink:href="#DejaVuSans-49"/>
       <use x="63.623047" xlink:href="#DejaVuSans-50"/>
      </g>
     </g>
    </g>
    <g id="ytick_36">
     <g id="line2d_95"/>
     <g id="text_29">
      <!-- 14 -->
      <g transform="translate(837.296 86.440969)scale(0.1 -0.1)">
       <use xlink:href="#DejaVuSans-49"/>
       <use x="63.623047" xlink:href="#DejaVuSans-52"/>
      </g>
     </g>
    </g>
    <g id="ytick_37">
     <g id="line2d_96"/>
    </g>
    <g id="ytick_38">
     <g id="line2d_97"/>
    </g>
    <g id="ytick_39">
     <g id="line2d_98"/>
    </g>
    <g id="ytick_40">
     <g id="line2d_99"/>
    </g>
    <g id="ytick_41">
     <g id="line2d_100"/>
    </g>
    <g id="ytick_42">
     <g id="line2d_101"/>
    </g>
    <g id="ytick_43">
     <g id="line2d_102"/>
    </g>
    <g id="ytick_44">
     <g id="line2d_103"/>
    </g>
    <g id="ytick_45">
     <g id="line2d_104"/>
    </g>
    <g id="ytick_46">
     <g id="line2d_105"/>
    </g>
    <g id="ytick_47">
     <g id="line2d_106"/>
    </g>
    <g id="ytick_48">
     <g id="line2d_107"/>
    </g>
    <g id="ytick_49">
     <g id="line2d_108"/>
    </g>
    <g id="ytick_50">
     <g id="line2d_109"/>
    </g>
    <g id="ytick_51">
     <g id="line2d_110"/>
    </g>
    <g id="ytick_52">
     <g id="line2d_111"/>
    </g>
    <g id="ytick_53">
     <g id="line2d_112"/>
    </g>
    <g id="ytick_54">
     <g id="line2d_113"/>
    </g>
    <g id="ytick_55">
     <g id="line2d_114"/>
    </g>
    <g id="ytick_56">
     <g id="line2d_115"/>
    </g>
    <g id="ytick_57">
     <g id="line2d_116"/>
    </g>
    <g id="text_30">
     <!-- Latency (ms) -->
     <g transform="translate(861.619438 345.062088)rotate(-90)scale(0.1 -0.1)">
      <defs>
       <path d="M 9.8125 72.90625 
L 19.671875 72.90625 
L 19.671875 8.296875 
L 55.171875 8.296875 
L 55.171875 0 
L 9.8125 0 
z
" id="DejaVuSans-76"/>
       <path d="M 56.203125 29.59375 
L 56.203125 25.203125 
L 14.890625 25.203125 
Q 15.484375 15.921875 20.484375 11.0625 
Q 25.484375 6.203125 34.421875 6.203125 
Q 39.59375 6.203125 44.453125 7.46875 
Q 49.3125 8.734375 54.109375 11.28125 
L 54.109375 2.78125 
Q 49.265625 0.734375 44.1875 -0.34375 
Q 39.109375 -1.421875 33.890625 -1.421875 
Q 20.796875 -1.421875 13.15625 6.1875 
Q 5.515625 13.8125 5.515625 26.8125 
Q 5.515625 40.234375 12.765625 48.109375 
Q 20.015625 56 32.328125 56 
Q 43.359375 56 49.78125 48.890625 
Q 56.203125 41.796875 56.203125 29.59375 
z
M 47.21875 32.234375 
Q 47.125 39.59375 43.09375 43.984375 
Q 39.0625 48.390625 32.421875 48.390625 
Q 24.90625 48.390625 20.390625 44.140625 
Q 15.875 39.890625 15.1875 32.171875 
z
" id="DejaVuSans-101"/>
       <path d="M 32.171875 -5.078125 
Q 28.375 -14.84375 24.75 -17.8125 
Q 21.140625 -20.796875 15.09375 -20.796875 
L 7.90625 -20.796875 
L 7.90625 -13.28125 
L 13.1875 -13.28125 
Q 16.890625 -13.28125 18.9375 -11.515625 
Q 21 -9.765625 23.484375 -3.21875 
L 25.09375 0.875 
L 2.984375 54.6875 
L 12.5 54.6875 
L 29.59375 11.921875 
L 46.6875 54.6875 
L 56.203125 54.6875 
z
" id="DejaVuSans-121"/>
      </defs>
      <use xlink:href="#DejaVuSans-76"/>
      <use x="55.712891" xlink:href="#DejaVuSans-97"/>
      <use x="116.992188" xlink:href="#DejaVuSans-116"/>
      <use x="156.201172" xlink:href="#DejaVuSans-101"/>
      <use x="217.724609" xlink:href="#DejaVuSans-110"/>
      <use x="281.103516" xlink:href="#DejaVuSans-99"/>
      <use x="336.083984" xlink:href="#DejaVuSans-121"/>
      <use x="395.263672" xlink:href="#DejaVuSans-32"/>
      <use x="427.050781" xlink:href="#DejaVuSans-40"/>
      <use x="466.064453" xlink:href="#DejaVuSans-109"/>
      <use x="563.476562" xlink:href="#DejaVuSans-115"/>
      <use x="615.576172" xlink:href="#DejaVuSans-41"/>
     </g>
    </g>
   </g>
   <g id="line2d_117">
    <path clip-path="url(#p2f55a73da4)" d="M 647.597925 340.547925 
L 665.331075 340.547925 
L 665.331075 244.29404 
L 647.597925 244.29404 
L 647.597925 340.547925 
" style="fill:none;stroke:#1b9e77;stroke-linecap:round;"/>
   </g>
   <g id="line2d_118">
    <path clip-path="url(#p2f55a73da4)" d="M 656.4645 340.547925 
L 656.4645 476.613713 
" style="fill:none;stroke:#1b9e77;stroke-linecap:round;"/>
   </g>
   <g id="line2d_119">
    <path clip-path="url(#p2f55a73da4)" d="M 656.4645 244.29404 
L 656.4645 148.631107 
" style="fill:none;stroke:#1b9e77;stroke-linecap:round;"/>
   </g>
   <g id="line2d_120">
    <path clip-path="url(#p2f55a73da4)" d="M 652.031212 476.613713 
L 660.897787 476.613713 
" style="fill:none;stroke:#1b9e77;stroke-linecap:round;"/>
   </g>
   <g id="line2d_121">
    <path clip-path="url(#p2f55a73da4)" d="M 652.031212 148.631107 
L 660.897787 148.631107 
" style="fill:none;stroke:#1b9e77;stroke-linecap:round;"/>
   </g>
   <g id="line2d_122">
    <g clip-path="url(#p2f55a73da4)">
     <use style="fill:#0000ff;stroke:#1b9e77;" x="656.4645" xlink:href="#m999f379ac9" y="543.803436"/>
     <use style="fill:#0000ff;stroke:#1b9e77;" x="656.4645" xlink:href="#m999f379ac9" y="539.813703"/>
     <use style="fill:#0000ff;stroke:#1b9e77;" x="656.4645" xlink:href="#m999f379ac9" y="535.765649"/>
     <use style="fill:#0000ff;stroke:#1b9e77;" x="656.4645" xlink:href="#m999f379ac9" y="531.50466"/>
     <use style="fill:#0000ff;stroke:#1b9e77;" x="656.4645" xlink:href="#m999f379ac9" y="527.750983"/>
     <use style="fill:#0000ff;stroke:#1b9e77;" x="656.4645" xlink:href="#m999f379ac9" y="523.54428"/>
     <use style="fill:#0000ff;stroke:#1b9e77;" x="656.4645" xlink:href="#m999f379ac9" y="522.195015"/>
     <use style="fill:#0000ff;stroke:#1b9e77;" x="656.4645" xlink:href="#m999f379ac9" y="521.961997"/>
     <use style="fill:#0000ff;stroke:#1b9e77;" x="656.4645" xlink:href="#m999f379ac9" y="521.784894"/>
     <use style="fill:#0000ff;stroke:#1b9e77;" x="656.4645" xlink:href="#m999f379ac9" y="521.510519"/>
     <use style="fill:#0000ff;stroke:#1b9e77;" x="656.4645" xlink:href="#m999f379ac9" y="521.143484"/>
     <use style="fill:#0000ff;stroke:#1b9e77;" x="656.4645" xlink:href="#m999f379ac9" y="521.079033"/>
     <use style="fill:#0000ff;stroke:#1b9e77;" x="656.4645" xlink:href="#m999f379ac9" y="520.806979"/>
     <use style="fill:#0000ff;stroke:#1b9e77;" x="656.4645" xlink:href="#m999f379ac9" y="512.209613"/>
     <use style="fill:#0000ff;stroke:#1b9e77;" x="656.4645" xlink:href="#m999f379ac9" y="512.458005"/>
     <use style="fill:#0000ff;stroke:#1b9e77;" x="656.4645" xlink:href="#m999f379ac9" y="512.495678"/>
     <use style="fill:#0000ff;stroke:#1b9e77;" x="656.4645" xlink:href="#m999f379ac9" y="512.590397"/>
     <use style="fill:#0000ff;stroke:#1b9e77;" x="656.4645" xlink:href="#m999f379ac9" y="512.952533"/>
     <use style="fill:#0000ff;stroke:#1b9e77;" x="656.4645" xlink:href="#m999f379ac9" y="512.66018"/>
     <use style="fill:#0000ff;stroke:#1b9e77;" x="656.4645" xlink:href="#m999f379ac9" y="512.690699"/>
     <use style="fill:#0000ff;stroke:#1b9e77;" x="656.4645" xlink:href="#m999f379ac9" y="506.50701"/>
     <use style="fill:#0000ff;stroke:#1b9e77;" x="656.4645" xlink:href="#m999f379ac9" y="490.146988"/>
     <use style="fill:#0000ff;stroke:#1b9e77;" x="656.4645" xlink:href="#m999f379ac9" y="505.916899"/>
     <use style="fill:#0000ff;stroke:#1b9e77;" x="656.4645" xlink:href="#m999f379ac9" y="518.608675"/>
     <use style="fill:#0000ff;stroke:#1b9e77;" x="656.4645" xlink:href="#m999f379ac9" y="523.83066"/>
     <use style="fill:#0000ff;stroke:#1b9e77;" x="656.4645" xlink:href="#m999f379ac9" y="523.044749"/>
     <use style="fill:#0000ff;stroke:#1b9e77;" x="656.4645" xlink:href="#m999f379ac9" y="522.948957"/>
     <use style="fill:#0000ff;stroke:#1b9e77;" x="656.4645" xlink:href="#m999f379ac9" y="523.214457"/>
     <use style="fill:#0000ff;stroke:#1b9e77;" x="656.4645" xlink:href="#m999f379ac9" y="522.874403"/>
     <use style="fill:#0000ff;stroke:#1b9e77;" x="656.4645" xlink:href="#m999f379ac9" y="522.641469"/>
     <use style="fill:#0000ff;stroke:#1b9e77;" x="656.4645" xlink:href="#m999f379ac9" y="522.887076"/>
     <use style="fill:#0000ff;stroke:#1b9e77;" x="656.4645" xlink:href="#m999f379ac9" y="522.650626"/>
     <use style="fill:#0000ff;stroke:#1b9e77;" x="656.4645" xlink:href="#m999f379ac9" y="521.940157"/>
     <use style="fill:#0000ff;stroke:#1b9e77;" x="656.4645" xlink:href="#m999f379ac9" y="521.905424"/>
     <use style="fill:#0000ff;stroke:#1b9e77;" x="656.4645" xlink:href="#m999f379ac9" y="521.567384"/>
     <use style="fill:#0000ff;stroke:#1b9e77;" x="656.4645" xlink:href="#m999f379ac9" y="521.518943"/>
     <use style="fill:#0000ff;stroke:#1b9e77;" x="656.4645" xlink:href="#m999f379ac9" y="521.611723"/>
     <use style="fill:#0000ff;stroke:#1b9e77;" x="656.4645" xlink:href="#m999f379ac9" y="525.558085"/>
     <use style="fill:#0000ff;stroke:#1b9e77;" x="656.4645" xlink:href="#m999f379ac9" y="529.622352"/>
     <use style="fill:#0000ff;stroke:#1b9e77;" x="656.4645" xlink:href="#m999f379ac9" y="533.682021"/>
     <use style="fill:#0000ff;stroke:#1b9e77;" x="656.4645" xlink:href="#m999f379ac9" y="537.580397"/>
     <use style="fill:#0000ff;stroke:#1b9e77;" x="656.4645" xlink:href="#m999f379ac9" y="541.606678"/>
    </g>
   </g>
   <g id="line2d_123">
    <path clip-path="url(#p2f55a73da4)" d="M 706.708425 350.268251 
L 724.441575 350.268251 
L 724.441575 258.030446 
L 706.708425 258.030446 
L 706.708425 350.268251 
" style="fill:none;stroke:#d95f02;stroke-linecap:round;"/>
   </g>
   <g id="line2d_124">
    <path clip-path="url(#p2f55a73da4)" d="M 715.575 350.268251 
L 715.575 477.113666 
" style="fill:none;stroke:#d95f02;stroke-linecap:round;"/>
   </g>
   <g id="line2d_125">
    <path clip-path="url(#p2f55a73da4)" d="M 715.575 258.030446 
L 715.575 119.786748 
" style="fill:none;stroke:#d95f02;stroke-linecap:round;"/>
   </g>
   <g id="line2d_126">
    <path clip-path="url(#p2f55a73da4)" d="M 711.141712 477.113666 
L 720.008287 477.113666 
" style="fill:none;stroke:#d95f02;stroke-linecap:round;"/>
   </g>
   <g id="line2d_127">
    <path clip-path="url(#p2f55a73da4)" d="M 711.141712 119.786748 
L 720.008287 119.786748 
" style="fill:none;stroke:#d95f02;stroke-linecap:round;"/>
   </g>
   <g id="line2d_128">
    <g clip-path="url(#p2f55a73da4)">
     <use style="fill:#0000ff;stroke:#d95f02;" x="715.575" xlink:href="#mfd58b9bc7d" y="542.099483"/>
     <use style="fill:#0000ff;stroke:#d95f02;" x="715.575" xlink:href="#mfd58b9bc7d" y="537.976516"/>
     <use style="fill:#0000ff;stroke:#d95f02;" x="715.575" xlink:href="#mfd58b9bc7d" y="533.875528"/>
     <use style="fill:#0000ff;stroke:#d95f02;" x="715.575" xlink:href="#mfd58b9bc7d" y="529.766373"/>
     <use style="fill:#0000ff;stroke:#d95f02;" x="715.575" xlink:href="#mfd58b9bc7d" y="525.819825"/>
     <use style="fill:#0000ff;stroke:#d95f02;" x="715.575" xlink:href="#mfd58b9bc7d" y="521.662723"/>
     <use style="fill:#0000ff;stroke:#d95f02;" x="715.575" xlink:href="#mfd58b9bc7d" y="519.551665"/>
     <use style="fill:#0000ff;stroke:#d95f02;" x="715.575" xlink:href="#mfd58b9bc7d" y="520.367242"/>
     <use style="fill:#0000ff;stroke:#d95f02;" x="715.575" xlink:href="#mfd58b9bc7d" y="520.852825"/>
     <use style="fill:#0000ff;stroke:#d95f02;" x="715.575" xlink:href="#mfd58b9bc7d" y="520.954801"/>
     <use style="fill:#0000ff;stroke:#d95f02;" x="715.575" xlink:href="#mfd58b9bc7d" y="520.769436"/>
     <use style="fill:#0000ff;stroke:#d95f02;" x="715.575" xlink:href="#mfd58b9bc7d" y="521.671777"/>
     <use style="fill:#0000ff;stroke:#d95f02;" x="715.575" xlink:href="#mfd58b9bc7d" y="521.614092"/>
     <use style="fill:#0000ff;stroke:#d95f02;" x="715.575" xlink:href="#mfd58b9bc7d" y="521.560296"/>
     <use style="fill:#0000ff;stroke:#d95f02;" x="715.575" xlink:href="#mfd58b9bc7d" y="520.83865"/>
     <use style="fill:#0000ff;stroke:#d95f02;" x="715.575" xlink:href="#mfd58b9bc7d" y="520.047065"/>
     <use style="fill:#0000ff;stroke:#d95f02;" x="715.575" xlink:href="#mfd58b9bc7d" y="520.048901"/>
     <use style="fill:#0000ff;stroke:#d95f02;" x="715.575" xlink:href="#mfd58b9bc7d" y="520.034737"/>
     <use style="fill:#0000ff;stroke:#d95f02;" x="715.575" xlink:href="#mfd58b9bc7d" y="519.038556"/>
     <use style="fill:#0000ff;stroke:#d95f02;" x="715.575" xlink:href="#mfd58b9bc7d" y="519.227893"/>
     <use style="fill:#0000ff;stroke:#d95f02;" x="715.575" xlink:href="#mfd58b9bc7d" y="511.716309"/>
     <use style="fill:#0000ff;stroke:#d95f02;" x="715.575" xlink:href="#mfd58b9bc7d" y="492.473501"/>
     <use style="fill:#0000ff;stroke:#d95f02;" x="715.575" xlink:href="#mfd58b9bc7d" y="515.797842"/>
     <use style="fill:#0000ff;stroke:#d95f02;" x="715.575" xlink:href="#mfd58b9bc7d" y="515.887315"/>
     <use style="fill:#0000ff;stroke:#d95f02;" x="715.575" xlink:href="#mfd58b9bc7d" y="514.141856"/>
     <use style="fill:#0000ff;stroke:#d95f02;" x="715.575" xlink:href="#mfd58b9bc7d" y="514.838396"/>
     <use style="fill:#0000ff;stroke:#d95f02;" x="715.575" xlink:href="#mfd58b9bc7d" y="515.283029"/>
     <use style="fill:#0000ff;stroke:#d95f02;" x="715.575" xlink:href="#mfd58b9bc7d" y="515.901246"/>
     <use style="fill:#0000ff;stroke:#d95f02;" x="715.575" xlink:href="#mfd58b9bc7d" y="516.339493"/>
     <use style="fill:#0000ff;stroke:#d95f02;" x="715.575" xlink:href="#mfd58b9bc7d" y="520.99293"/>
     <use style="fill:#0000ff;stroke:#d95f02;" x="715.575" xlink:href="#mfd58b9bc7d" y="524.694993"/>
     <use style="fill:#0000ff;stroke:#d95f02;" x="715.575" xlink:href="#mfd58b9bc7d" y="526.947867"/>
     <use style="fill:#0000ff;stroke:#d95f02;" x="715.575" xlink:href="#mfd58b9bc7d" y="528.522045"/>
     <use style="fill:#0000ff;stroke:#d95f02;" x="715.575" xlink:href="#mfd58b9bc7d" y="529.036023"/>
     <use style="fill:#0000ff;stroke:#d95f02;" x="715.575" xlink:href="#mfd58b9bc7d" y="529.094347"/>
     <use style="fill:#0000ff;stroke:#d95f02;" x="715.575" xlink:href="#mfd58b9bc7d" y="530.81388"/>
     <use style="fill:#0000ff;stroke:#d95f02;" x="715.575" xlink:href="#mfd58b9bc7d" y="533.823169"/>
     <use style="fill:#0000ff;stroke:#d95f02;" x="715.575" xlink:href="#mfd58b9bc7d" y="536.898066"/>
     <use style="fill:#0000ff;stroke:#d95f02;" x="715.575" xlink:href="#mfd58b9bc7d" y="539.892601"/>
     <use style="fill:#0000ff;stroke:#d95f02;" x="715.575" xlink:href="#mfd58b9bc7d" y="542.910974"/>
     <use style="fill:#0000ff;stroke:#d95f02;" x="715.575" xlink:href="#mfd58b9bc7d" y="545.778282"/>
     <use style="fill:#0000ff;stroke:#d95f02;" x="715.575" xlink:href="#mfd58b9bc7d" y="103.513623"/>
     <use style="fill:#0000ff;stroke:#d95f02;" x="715.575" xlink:href="#mfd58b9bc7d" y="78.886518"/>
    </g>
   </g>
   <g id="line2d_129">
    <path clip-path="url(#p2f55a73da4)" d="M 765.818925 343.655452 
L 783.552075 343.655452 
L 783.552075 242.530416 
L 765.818925 242.530416 
L 765.818925 343.655452 
" style="fill:none;stroke:#7570b3;stroke-linecap:round;"/>
   </g>
   <g id="line2d_130">
    <path clip-path="url(#p2f55a73da4)" d="M 774.6855 343.655452 
L 774.6855 491.363442 
" style="fill:none;stroke:#7570b3;stroke-linecap:round;"/>
   </g>
   <g id="line2d_131">
    <path clip-path="url(#p2f55a73da4)" d="M 774.6855 242.530416 
L 774.6855 115.596737 
" style="fill:none;stroke:#7570b3;stroke-linecap:round;"/>
   </g>
   <g id="line2d_132">
    <path clip-path="url(#p2f55a73da4)" d="M 770.252212 491.363442 
L 779.118787 491.363442 
" style="fill:none;stroke:#7570b3;stroke-linecap:round;"/>
   </g>
   <g id="line2d_133">
    <path clip-path="url(#p2f55a73da4)" d="M 770.252212 115.596737 
L 779.118787 115.596737 
" style="fill:none;stroke:#7570b3;stroke-linecap:round;"/>
   </g>
   <g id="line2d_134">
    <g clip-path="url(#p2f55a73da4)">
     <use style="fill:#0000ff;stroke:#7570b3;" x="774.6855" xlink:href="#m0ec68120a2" y="543.511671"/>
     <use style="fill:#0000ff;stroke:#7570b3;" x="774.6855" xlink:href="#m0ec68120a2" y="539.577515"/>
     <use style="fill:#0000ff;stroke:#7570b3;" x="774.6855" xlink:href="#m0ec68120a2" y="535.592839"/>
     <use style="fill:#0000ff;stroke:#7570b3;" x="774.6855" xlink:href="#m0ec68120a2" y="531.528992"/>
     <use style="fill:#0000ff;stroke:#7570b3;" x="774.6855" xlink:href="#m0ec68120a2" y="527.585976"/>
     <use style="fill:#0000ff;stroke:#7570b3;" x="774.6855" xlink:href="#m0ec68120a2" y="523.633603"/>
     <use style="fill:#0000ff;stroke:#7570b3;" x="774.6855" xlink:href="#m0ec68120a2" y="522.748352"/>
     <use style="fill:#0000ff;stroke:#7570b3;" x="774.6855" xlink:href="#m0ec68120a2" y="522.571079"/>
     <use style="fill:#0000ff;stroke:#7570b3;" x="774.6855" xlink:href="#m0ec68120a2" y="522.513245"/>
     <use style="fill:#0000ff;stroke:#7570b3;" x="774.6855" xlink:href="#m0ec68120a2" y="522.689506"/>
     <use style="fill:#0000ff;stroke:#7570b3;" x="774.6855" xlink:href="#m0ec68120a2" y="522.54268"/>
     <use style="fill:#0000ff;stroke:#7570b3;" x="774.6855" xlink:href="#m0ec68120a2" y="522.539373"/>
     <use style="fill:#0000ff;stroke:#7570b3;" x="774.6855" xlink:href="#m0ec68120a2" y="522.400118"/>
     <use style="fill:#0000ff;stroke:#7570b3;" x="774.6855" xlink:href="#m0ec68120a2" y="512.991036"/>
     <use style="fill:#0000ff;stroke:#7570b3;" x="774.6855" xlink:href="#m0ec68120a2" y="513.120208"/>
     <use style="fill:#0000ff;stroke:#7570b3;" x="774.6855" xlink:href="#m0ec68120a2" y="512.926839"/>
     <use style="fill:#0000ff;stroke:#7570b3;" x="774.6855" xlink:href="#m0ec68120a2" y="512.892522"/>
     <use style="fill:#0000ff;stroke:#7570b3;" x="774.6855" xlink:href="#m0ec68120a2" y="513.255727"/>
     <use style="fill:#0000ff;stroke:#7570b3;" x="774.6855" xlink:href="#m0ec68120a2" y="513.231597"/>
     <use style="fill:#0000ff;stroke:#7570b3;" x="774.6855" xlink:href="#m0ec68120a2" y="513.147065"/>
     <use style="fill:#0000ff;stroke:#7570b3;" x="774.6855" xlink:href="#m0ec68120a2" y="501.456024"/>
     <use style="fill:#0000ff;stroke:#7570b3;" x="774.6855" xlink:href="#m0ec68120a2" y="498.492932"/>
     <use style="fill:#0000ff;stroke:#7570b3;" x="774.6855" xlink:href="#m0ec68120a2" y="502.826828"/>
     <use style="fill:#0000ff;stroke:#7570b3;" x="774.6855" xlink:href="#m0ec68120a2" y="506.745133"/>
     <use style="fill:#0000ff;stroke:#7570b3;" x="774.6855" xlink:href="#m0ec68120a2" y="513.660198"/>
     <use style="fill:#0000ff;stroke:#7570b3;" x="774.6855" xlink:href="#m0ec68120a2" y="517.431781"/>
     <use style="fill:#0000ff;stroke:#7570b3;" x="774.6855" xlink:href="#m0ec68120a2" y="519.846123"/>
     <use style="fill:#0000ff;stroke:#7570b3;" x="774.6855" xlink:href="#m0ec68120a2" y="519.03834"/>
     <use style="fill:#0000ff;stroke:#7570b3;" x="774.6855" xlink:href="#m0ec68120a2" y="518.872997"/>
     <use style="fill:#0000ff;stroke:#7570b3;" x="774.6855" xlink:href="#m0ec68120a2" y="519.26663"/>
     <use style="fill:#0000ff;stroke:#7570b3;" x="774.6855" xlink:href="#m0ec68120a2" y="519.427653"/>
     <use style="fill:#0000ff;stroke:#7570b3;" x="774.6855" xlink:href="#m0ec68120a2" y="519.609029"/>
     <use style="fill:#0000ff;stroke:#7570b3;" x="774.6855" xlink:href="#m0ec68120a2" y="519.932846"/>
     <use style="fill:#0000ff;stroke:#7570b3;" x="774.6855" xlink:href="#m0ec68120a2" y="524.044385"/>
     <use style="fill:#0000ff;stroke:#7570b3;" x="774.6855" xlink:href="#m0ec68120a2" y="527.961384"/>
     <use style="fill:#0000ff;stroke:#7570b3;" x="774.6855" xlink:href="#m0ec68120a2" y="531.846229"/>
     <use style="fill:#0000ff;stroke:#7570b3;" x="774.6855" xlink:href="#m0ec68120a2" y="535.866926"/>
     <use style="fill:#0000ff;stroke:#7570b3;" x="774.6855" xlink:href="#m0ec68120a2" y="539.911767"/>
    </g>
   </g>
   <g id="line2d_135">
    <path clip-path="url(#p2f55a73da4)" d="M 833.796 550.4472 
L 833.796 74.2176 
" style="fill:none;stroke:#000000;stroke-dasharray:0.5,0.825;stroke-dashoffset:0;stroke-width:0.5;"/>
   </g>
   <g id="line2d_136">
    <path clip-path="url(#p2f55a73da4)" d="M 647.597925 296.419803 
L 665.331075 296.419803 
" style="fill:none;stroke:#ff7f0e;stroke-linecap:round;"/>
   </g>
   <g id="line2d_137">
    <path clip-path="url(#p2f55a73da4)" d="M 706.708425 299.525904 
L 724.441575 299.525904 
" style="fill:none;stroke:#ff7f0e;stroke-linecap:round;"/>
   </g>
   <g id="line2d_138">
    <path clip-path="url(#p2f55a73da4)" d="M 765.818925 277.149064 
L 783.552075 277.149064 
" style="fill:none;stroke:#ff7f0e;stroke-linecap:round;"/>
   </g>
  </g>
  <g id="text_31">
   <!-- Realtime Response Under Load - exclusively Best Effort -->
   <g transform="translate(303.952656 15.791812)scale(0.14 -0.14)">
    <defs>
     <path d="M 41.109375 46.296875 
Q 39.59375 47.171875 37.8125 47.578125 
Q 36.03125 48 33.890625 48 
Q 26.265625 48 22.1875 43.046875 
Q 18.109375 38.09375 18.109375 28.8125 
L 18.109375 0 
L 9.078125 0 
L 9.078125 54.6875 
L 18.109375 54.6875 
L 18.109375 46.1875 
Q 20.953125 51.171875 25.484375 53.578125 
Q 30.03125 56 36.53125 56 
Q 37.453125 56 38.578125 55.875 
Q 39.703125 55.765625 41.0625 55.515625 
z
" id="DejaVuSans-114"/>
     <path d="M 54.890625 54.6875 
L 35.109375 28.078125 
L 55.90625 0 
L 45.3125 0 
L 29.390625 21.484375 
L 13.484375 0 
L 2.875 0 
L 24.125 28.609375 
L 4.6875 54.6875 
L 15.28125 54.6875 
L 29.78125 35.203125 
L 44.28125 54.6875 
z
" id="DejaVuSans-120"/>
     <path d="M 9.8125 72.90625 
L 55.90625 72.90625 
L 55.90625 64.59375 
L 19.671875 64.59375 
L 19.671875 43.015625 
L 54.390625 43.015625 
L 54.390625 34.71875 
L 19.671875 34.71875 
L 19.671875 8.296875 
L 56.78125 8.296875 
L 56.78125 0 
L 9.8125 0 
z
" id="DejaVuSans-69"/>
     <path d="M 37.109375 75.984375 
L 37.109375 68.5 
L 28.515625 68.5 
Q 23.6875 68.5 21.796875 66.546875 
Q 19.921875 64.59375 19.921875 59.515625 
L 19.921875 54.6875 
L 34.71875 54.6875 
L 34.71875 47.703125 
L 19.921875 47.703125 
L 19.921875 0 
L 10.890625 0 
L 10.890625 47.703125 
L 2.296875 47.703125 
L 2.296875 54.6875 
L 10.890625 54.6875 
L 10.890625 58.5 
Q 10.890625 67.625 15.140625 71.796875 
Q 19.390625 75.984375 28.609375 75.984375 
z
" id="DejaVuSans-102"/>
    </defs>
    <use xlink:href="#DejaVuSans-82"/>
    <use x="64.982422" xlink:href="#DejaVuSans-101"/>
    <use x="126.505859" xlink:href="#DejaVuSans-97"/>
    <use x="187.785156" xlink:href="#DejaVuSans-108"/>
    <use x="215.568359" xlink:href="#DejaVuSans-116"/>
    <use x="254.777344" xlink:href="#DejaVuSans-105"/>
    <use x="282.560547" xlink:href="#DejaVuSans-109"/>
    <use x="379.972656" xlink:href="#DejaVuSans-101"/>
    <use x="441.496094" xlink:href="#DejaVuSans-32"/>
    <use x="473.283203" xlink:href="#DejaVuSans-82"/>
    <use x="538.265625" xlink:href="#DejaVuSans-101"/>
    <use x="599.789062" xlink:href="#DejaVuSans-115"/>
    <use x="651.888672" xlink:href="#DejaVuSans-112"/>
    <use x="715.365234" xlink:href="#DejaVuSans-111"/>
    <use x="776.546875" xlink:href="#DejaVuSans-110"/>
    <use x="839.925781" xlink:href="#DejaVuSans-115"/>
    <use x="892.025391" xlink:href="#DejaVuSans-101"/>
    <use x="953.548828" xlink:href="#DejaVuSans-32"/>
    <use x="985.335938" xlink:href="#DejaVuSans-85"/>
    <use x="1058.529297" xlink:href="#DejaVuSans-110"/>
    <use x="1121.908203" xlink:href="#DejaVuSans-100"/>
    <use x="1185.384766" xlink:href="#DejaVuSans-101"/>
    <use x="1246.908203" xlink:href="#DejaVuSans-114"/>
    <use x="1288.021484" xlink:href="#DejaVuSans-32"/>
    <use x="1319.808594" xlink:href="#DejaVuSans-76"/>
    <use x="1373.771484" xlink:href="#DejaVuSans-111"/>
    <use x="1434.953125" xlink:href="#DejaVuSans-97"/>
    <use x="1496.232422" xlink:href="#DejaVuSans-100"/>
    <use x="1559.708984" xlink:href="#DejaVuSans-32"/>
    <use x="1591.496094" xlink:href="#DejaVuSans-45"/>
    <use x="1627.580078" xlink:href="#DejaVuSans-32"/>
    <use x="1659.367188" xlink:href="#DejaVuSans-101"/>
    <use x="1719.140625" xlink:href="#DejaVuSans-120"/>
    <use x="1776.570312" xlink:href="#DejaVuSans-99"/>
    <use x="1831.550781" xlink:href="#DejaVuSans-108"/>
    <use x="1859.333984" xlink:href="#DejaVuSans-117"/>
    <use x="1922.712891" xlink:href="#DejaVuSans-115"/>
    <use x="1974.8125" xlink:href="#DejaVuSans-105"/>
    <use x="2002.595703" xlink:href="#DejaVuSans-118"/>
    <use x="2061.775391" xlink:href="#DejaVuSans-101"/>
    <use x="2123.298828" xlink:href="#DejaVuSans-108"/>
    <use x="2151.082031" xlink:href="#DejaVuSans-121"/>
    <use x="2210.261719" xlink:href="#DejaVuSans-32"/>
    <use x="2242.048828" xlink:href="#DejaVuSans-66"/>
    <use x="2310.652344" xlink:href="#DejaVuSans-101"/>
    <use x="2372.175781" xlink:href="#DejaVuSans-115"/>
    <use x="2424.275391" xlink:href="#DejaVuSans-116"/>
    <use x="2463.484375" xlink:href="#DejaVuSans-32"/>
    <use x="2495.271484" xlink:href="#DejaVuSans-69"/>
    <use x="2558.455078" xlink:href="#DejaVuSans-102"/>
    <use x="2593.660156" xlink:href="#DejaVuSans-102"/>
    <use x="2628.865234" xlink:href="#DejaVuSans-111"/>
    <use x="2690.046875" xlink:href="#DejaVuSans-114"/>
    <use x="2731.160156" xlink:href="#DejaVuSans-116"/>
   </g>
   <!-- Box plot of totals -->
   <g transform="translate(438.38 31.46875)scale(0.14 -0.14)">
    <use xlink:href="#DejaVuSans-66"/>
    <use x="68.603516" xlink:href="#DejaVuSans-111"/>
    <use x="126.660156" xlink:href="#DejaVuSans-120"/>
    <use x="185.839844" xlink:href="#DejaVuSans-32"/>
    <use x="217.626953" xlink:href="#DejaVuSans-112"/>
    <use x="281.103516" xlink:href="#DejaVuSans-108"/>
    <use x="308.886719" xlink:href="#DejaVuSans-111"/>
    <use x="370.068359" xlink:href="#DejaVuSans-116"/>
    <use x="409.277344" xlink:href="#DejaVuSans-32"/>
    <use x="441.064453" xlink:href="#DejaVuSans-111"/>
    <use x="502.246094" xlink:href="#DejaVuSans-102"/>
    <use x="537.451172" xlink:href="#DejaVuSans-32"/>
    <use x="569.238281" xlink:href="#DejaVuSans-116"/>
    <use x="608.447266" xlink:href="#DejaVuSans-111"/>
    <use x="669.628906" xlink:href="#DejaVuSans-116"/>
    <use x="708.837891" xlink:href="#DejaVuSans-97"/>
    <use x="770.117188" xlink:href="#DejaVuSans-108"/>
    <use x="797.900391" xlink:href="#DejaVuSans-115"/>
   </g>
  </g>
 </g>
 <defs>
  <clipPath id="p2f55a73da4">
   <rect height="476.2296" width="709.326" x="124.47" y="74.2176"/>
  </clipPath>
 </defs>
</svg>
